#N canvas 91 207 765 304 12;
#N canvas 830 139 450 278 (subpatch) 0;
#X array \$0-rs_array 129069 float 2;
#A color 0;
#A width 2;
#X coords 0 1 129069 -1 200 75 2 0 0;
#X restore 20 109 graph;
#X symbolatom 38 189 17 0 0 0 - \$0-filename \$0-filenamedummy 10;
#N canvas -119 -928 1268 400 sampleplayer 0;
#X obj 15 20 inlet playback;
#X obj 15 44 s \$0-rares;
#X obj 312 44 r \$0-b;
#X obj 305 242 r \$0-slength;
#X obj 280 264 *~, f 4;
#X obj 280 312 *~;
#X obj 337 107 env~;
#X obj 337 128 dbtorms;
#X floatatom 337 149 5 0 0 0 - - - 0;
#X obj 337 172 vsl 19 65 0 1 0 0 empty empty empty 0 -9 0 12 #fcfcfc #000000 #000000 0 1;
#X obj 224 88 snake~ out, f 11;
#X obj 224 238 phasor~, f 9;
#X obj 224 215 *~;
#X obj 252 216 sel 1;
#X obj 252 159 r \$0-rares;
#N canvas 925 348 306 91 pb_stereo 0;
#X obj 10 13 inlet~;
#X obj 10 59 outlet~;
#X obj 245 13 sig~ 1;
#X obj 10 36 tabread4~ \$0-rs_array \$0-rs_array2;
#X connect 0 0 3 0;
#X connect 2 0 3 1;
#X connect 3 0 1 0;
#X restore 280 288 pd pb_stereo;
#X obj 227 362 hsl 65 19 0 1 0 0 empty empty empty 12 10 0 12 #fcfcfc #000000 #000000 0 1;
#X obj 224 312 env~;
#X obj 224 336 dbtorms;
#X obj 224 159 *~;
#X obj 242 112 r \$0-rc;
#X obj 242 135 sig~;
#X text 124 133 Multiply with center play back rate, f 13;
#X obj 298 20 r~ \$0-tlog2t;
#X obj 224 20 r~ \$0-tet;
#X obj 224 44 snake~, f 11;
#X obj 242 183 sig~;
#X obj 224 66 stream~ 1 32, f 13;
#X obj 516 44 r \$0-b;
#X obj 509 242 r \$0-slength;
#X obj 484 264 *~, f 4;
#X obj 484 312 *~;
#X obj 541 107 env~;
#X obj 541 128 dbtorms;
#X floatatom 541 149 5 0 0 0 - - - 0;
#X obj 541 172 vsl 19 65 0 1 0 0 empty empty empty 0 -9 0 12 #fcfcfc #000000 #000000 0 1;
#X obj 428 88 snake~ out, f 11;
#X obj 428 238 phasor~, f 9;
#X obj 428 215 *~;
#X obj 456 216 sel 1;
#X obj 457 159 r \$0-rares;
#N canvas 925 348 306 91 pb_stereo 0;
#X obj 10 13 inlet~;
#X obj 10 59 outlet~;
#X obj 245 13 sig~ 1;
#X obj 10 36 tabread4~ \$0-rs_array \$0-rs_array2;
#X connect 0 0 3 0;
#X connect 2 0 3 1;
#X connect 3 0 1 0;
#X restore 484 288 pd pb_stereo;
#X obj 431 362 hsl 65 19 0 1 0 0 empty empty empty 12 10 0 12 #fcfcfc #000000 #000000 0 1;
#X obj 428 312 env~;
#X obj 428 336 dbtorms;
#X obj 428 159 *~;
#X obj 446 112 r \$0-rc;
#X obj 446 135 sig~;
#X obj 502 20 r~ \$0-tlog2t;
#X obj 428 20 r~ \$0-tet;
#X obj 428 44 snake~, f 11;
#X obj 446 183 sig~;
#X obj 428 66 stream~ 2 32, f 13;
#X obj 398 288 s~ \$0-tlT2;
#X obj 194 288 s~ \$0-tlT1;
#X obj 722 44 r \$0-b;
#X obj 715 242 r \$0-slength;
#X obj 690 264 *~, f 4;
#X obj 690 312 *~;
#X obj 747 107 env~;
#X obj 747 128 dbtorms;
#X floatatom 747 149 5 0 0 0 - - - 0;
#X obj 747 172 vsl 19 65 0 1 0 0 empty empty empty 0 -9 0 12 #fcfcfc #000000 #000000 0 1;
#X obj 634 88 snake~ out, f 11;
#X obj 634 238 phasor~, f 9;
#X obj 634 215 *~;
#X obj 662 216 sel 1;
#X obj 662 159 r \$0-rares;
#N canvas 925 348 306 91 pb_stereo 0;
#X obj 10 13 inlet~;
#X obj 10 59 outlet~;
#X obj 245 13 sig~ 1;
#X obj 10 36 tabread4~ \$0-rs_array \$0-rs_array2;
#X connect 0 0 3 0;
#X connect 2 0 3 1;
#X connect 3 0 1 0;
#X restore 690 288 pd pb_stereo;
#X obj 637 362 hsl 65 19 0 1 0 0 empty empty empty 12 10 0 12 #fcfcfc #000000 #000000 0 1;
#X obj 634 312 env~;
#X obj 634 336 dbtorms;
#X obj 634 159 *~;
#X obj 652 112 r \$0-rc;
#X obj 652 135 sig~;
#X obj 708 20 r~ \$0-tlog2t;
#X obj 634 20 r~ \$0-tet;
#X obj 634 44 snake~, f 11;
#X obj 652 183 sig~;
#X obj 926 44 r \$0-b;
#X obj 919 242 r \$0-slength;
#X obj 894 264 *~, f 4;
#X obj 894 312 *~;
#X obj 951 107 env~;
#X obj 951 128 dbtorms;
#X floatatom 951 149 5 0 0 0 - - - 0;
#X obj 951 172 vsl 19 65 0 1 0 0 empty empty empty 0 -9 0 12 #fcfcfc #000000 #000000 0 1;
#X obj 838 88 snake~ out, f 11;
#X obj 838 238 phasor~, f 9;
#X obj 838 215 *~;
#X obj 866 216 sel 1;
#X obj 867 159 r \$0-rares;
#N canvas 925 348 306 91 pb_stereo 0;
#X obj 10 13 inlet~;
#X obj 10 59 outlet~;
#X obj 245 13 sig~ 1;
#X obj 10 36 tabread4~ \$0-rs_array \$0-rs_array2;
#X connect 0 0 3 0;
#X connect 2 0 3 1;
#X connect 3 0 1 0;
#X restore 894 288 pd pb_stereo;
#X obj 841 362 hsl 65 19 0 1 0 0 empty empty empty 12 10 0 12 #fcfcfc #000000 #000000 0 1;
#X obj 838 312 env~;
#X obj 838 336 dbtorms;
#X obj 838 159 *~;
#X obj 856 112 r \$0-rc;
#X obj 856 135 sig~;
#X obj 912 20 r~ \$0-tlog2t;
#X obj 838 20 r~ \$0-tet;
#X obj 838 44 snake~, f 11;
#X obj 856 183 sig~;
#X obj 1136 44 r \$0-b;
#X obj 1129 242 r \$0-slength;
#X obj 1104 264 *~, f 4;
#X obj 1104 312 *~;
#X obj 1161 107 env~;
#X obj 1161 128 dbtorms;
#X floatatom 1161 149 5 0 0 0 - - - 0;
#X obj 1161 172 vsl 19 65 0 1 0 0 empty empty empty 0 -9 0 12 #fcfcfc #000000 #000000 0 1;
#X obj 1048 88 snake~ out, f 11;
#X obj 1048 238 phasor~, f 9;
#X obj 1048 215 *~;
#X obj 1076 216 sel 1;
#X obj 1077 159 r \$0-rares;
#N canvas 925 348 306 91 pb_stereo 0;
#X obj 10 13 inlet~;
#X obj 10 59 outlet~;
#X obj 245 13 sig~ 1;
#X obj 10 36 tabread4~ \$0-rs_array \$0-rs_array2;
#X connect 0 0 3 0;
#X connect 2 0 3 1;
#X connect 3 0 1 0;
#X restore 1104 288 pd pb_stereo;
#X obj 1051 362 hsl 65 19 0 1 0 0 empty empty empty 12 10 0 12 #fcfcfc #000000 #000000 0 1;
#X obj 1048 312 env~;
#X obj 1048 336 dbtorms;
#X obj 1048 159 *~;
#X obj 1066 112 r \$0-rc;
#X obj 1066 135 sig~;
#X obj 1122 20 r~ \$0-tlog2t;
#X obj 1048 20 r~ \$0-tet;
#X obj 1048 44 snake~, f 11;
#X obj 1066 183 sig~;
#X obj 604 288 s~ \$0-tlT3;
#X obj 808 288 s~ \$0-tlT4;
#X obj 1018 288 s~ \$0-tlT5;
#X obj 634 66 stream~ 3 32, f 13;
#X obj 838 66 stream~ 4 32, f 13;
#X obj 1048 66 stream~ 5 32, f 13;
#X obj 280 336 throw~ \$0-sum 2;
#X obj 484 336 throw~ \$0-sum 2;
#X obj 690 336 throw~ \$0-sum 2;
#X obj 894 336 throw~ \$0-sum 2;
#X obj 1104 336 throw~ \$0-sum 2;
#N canvas 743 -687 399 271 metabar 0;
#X obj 21 121 r \$0-slength;
#X obj 11 191 *, f 5;
#X obj 11 236 s \$0-tmeta;
#X obj 21 168 t b f;
#X floatatom 21 145 10 0 0 0 - - - 0;
#X floatatom 11 214 11 0 0 0 - - - 0;
#X text 102 144 T (duration of original loop in samples);
#X text 101 213 τ (duration of metabar in samples);
#X obj 11 14 loadbang;
#X msg 11 37 8, f 2;
#X obj 21 99 s \$0-mb;
#X floatatom 11 59 5 1 32 0 - - - 0;
#X text 40 36 Metabar duration factor \, e.g. τ = T * 8, f 40;
#X connect 0 0 4 0;
#X connect 1 0 5 0;
#X connect 3 0 1 0;
#X connect 3 1 1 1;
#X connect 4 0 3 0;
#X connect 5 0 2 0;
#X connect 8 0 9 0;
#X connect 9 0 11 0;
#X connect 11 0 10 0;
#X connect 11 0 1 0;
#X restore 15 94 pd metabar;
#N canvas 586 457 406 311 tet 0;
#X obj 96 14 r \$0-tmeta;
#X obj 191 14 r \$0-srate;
#X floatatom 96 59 9 0 0 0 - - - 0;
#X obj 96 37 expr 1/$f1*$f2;
#X obj 68 214 phasor~;
#X text 128 213 te/τ;
#X obj 68 121 *, f 9;
#X obj 83 191 sel 1;
#X obj 68 236 s~ \$0-tet;
#X obj 68 99 f, f 2;
#X obj 96 81 t b f;
#N canvas 836 89 282 184 switch 0;
#X obj 12 9 inlet;
#X msg 84 58 -1, f 2;
#X msg 61 58 1, f 1;
#X obj 61 33 sel 0 1;
#X text 34 127 Accelerando/ decelerando, f 26;
#X obj 61 81 sig~;
#X obj 61 105 s~ \$0-directionsig;
#X obj 61 9 r \$0-direction;
#X obj 172 51 s \$0-tgldummy;
#X msg 172 28 0, f 1;
#X obj 12 33 sig~;
#X obj 12 126 *~, f 2;
#X obj 12 148 outlet~;
#X connect 0 0 10 0;
#X connect 1 0 5 0;
#X connect 2 0 5 0;
#X connect 3 0 2 0;
#X connect 3 1 1 0;
#X connect 5 0 6 0;
#X connect 5 0 11 1;
#X connect 7 0 3 0;
#X connect 7 0 9 0;
#X connect 9 0 8 0;
#X connect 10 0 11 0;
#X connect 11 0 12 0;
#X restore 68 145 pd switch;
#X text 141 144 <- Accelerando/ Decelerando switch.;
#X obj 12 14 r \$0-rares;
#X obj 83 168 r \$0-rares;
#X obj 190 233 env~;
#X obj 190 257 dbtorms;
#X obj 193 280 hsl 85 19 0 1 0 0 \$0-meindic empty 1\ Metabar 10 10 0 12 #fcfcfc #000000 #000000 0 1;
#X connect 0 0 3 0;
#X connect 1 0 3 1;
#X connect 2 0 10 0;
#X connect 3 0 2 0;
#X connect 4 0 8 0;
#X connect 4 0 15 0;
#X connect 6 0 11 0;
#X connect 7 1 4 1;
#X connect 9 0 6 0;
#X connect 10 0 9 0;
#X connect 10 1 6 1;
#X connect 11 0 4 0;
#X connect 13 0 9 0;
#X connect 14 0 7 0;
#X connect 15 0 16 0;
#X connect 16 0 17 0;
#X restore 15 119 pd tet;
#N canvas 614 577 308 121 rc 0;
#X obj 112 13 r \$0-srate;
#X obj 10 36 expr 1/$f1*$f2, f 15;
#X obj 10 13 r \$0-slength;
#X floatatom 10 59 13 0 0 0 - - - 12;
#X obj 10 81 s \$0-rc;
#X text 113 58 rc (center playback rate);
#X connect 0 0 1 1;
#X connect 1 0 3 0;
#X connect 2 0 1 0;
#X connect 3 0 4 0;
#X restore 15 144 pd rc;
#N canvas 643 502 149 227 tlog2t 0;
#X obj 11 28 r \$0-slength;
#X obj 11 126 /;
#X obj 21 103 t b f;
#X obj 21 80 r \$0-tmeta;
#X obj 11 52 expr $f1*ln(2);
#X floatatom 11 149 13 0 0 0 - - - 0;
#X obj 11 172 sig~;
#X text 9 5 T*log2/τ;
#X obj 11 196 s~ \$0-tlog2t;
#X connect 0 0 4 0;
#X connect 1 0 5 0;
#X connect 2 0 1 0;
#X connect 2 1 1 1;
#X connect 3 0 2 0;
#X connect 4 0 1 0;
#X connect 5 0 6 0;
#X connect 6 0 8 0;
#X restore 15 169 pd tlog2t;
#N canvas 711 -503 337 113 b 0;
#X obj 11 81 s \$0-b;
#X obj 11 11 r \$0-mb;
#X floatatom 11 58 5 0 0 0 - - - 0;
#X obj 11 33 * 4;
#X text 81 10 With 5 streams \, the most convincing barberpole effect (lowest total amplitude variation \, no audible jumps on metabar restart) seems to happen when `4 * τ = b`, f 32;
#X connect 1 0 3 0;
#X connect 2 0 0 0;
#X connect 3 0 2 0;
#X restore 15 194 pd b;
#X text 15 71 Helpers;
#X connect 0 0 1 0;
#X connect 2 0 27 1;
#X connect 3 0 4 1;
#X connect 4 0 15 0;
#X connect 5 0 133 0;
#X connect 6 0 7 0;
#X connect 7 0 8 0;
#X connect 8 0 9 0;
#X connect 10 0 19 0;
#X connect 10 1 5 1;
#X connect 10 1 6 0;
#X connect 11 0 4 0;
#X connect 11 0 17 0;
#X connect 11 0 54 0;
#X connect 12 0 11 0;
#X connect 13 1 11 1;
#X connect 14 0 13 0;
#X connect 14 0 26 0;
#X connect 15 0 5 0;
#X connect 17 0 18 0;
#X connect 18 0 16 0;
#X connect 19 0 12 0;
#X connect 20 0 21 0;
#X connect 21 0 19 1;
#X connect 23 0 25 1;
#X connect 24 0 25 0;
#X connect 25 0 27 0;
#X connect 26 0 12 1;
#X connect 27 0 10 0;
#X connect 28 0 52 1;
#X connect 29 0 30 1;
#X connect 30 0 41 0;
#X connect 31 0 134 0;
#X connect 32 0 33 0;
#X connect 33 0 34 0;
#X connect 34 0 35 0;
#X connect 36 0 45 0;
#X connect 36 1 31 1;
#X connect 36 1 32 0;
#X connect 37 0 30 0;
#X connect 37 0 43 0;
#X connect 37 0 53 0;
#X connect 38 0 37 0;
#X connect 39 1 37 1;
#X connect 40 0 39 0;
#X connect 40 0 51 0;
#X connect 41 0 31 0;
#X connect 43 0 44 0;
#X connect 44 0 42 0;
#X connect 45 0 38 0;
#X connect 46 0 47 0;
#X connect 47 0 45 1;
#X connect 48 0 50 1;
#X connect 49 0 50 0;
#X connect 50 0 52 0;
#X connect 51 0 38 1;
#X connect 52 0 36 0;
#X connect 55 0 130 1;
#X connect 56 0 57 1;
#X connect 57 0 68 0;
#X connect 58 0 135 0;
#X connect 59 0 60 0;
#X connect 60 0 61 0;
#X connect 61 0 62 0;
#X connect 63 0 72 0;
#X connect 63 1 58 1;
#X connect 63 1 59 0;
#X connect 64 0 57 0;
#X connect 64 0 70 0;
#X connect 64 0 127 0;
#X connect 65 0 64 0;
#X connect 66 1 64 1;
#X connect 67 0 66 0;
#X connect 67 0 78 0;
#X connect 68 0 58 0;
#X connect 70 0 71 0;
#X connect 71 0 69 0;
#X connect 72 0 65 0;
#X connect 73 0 74 0;
#X connect 74 0 72 1;
#X connect 75 0 77 1;
#X connect 76 0 77 0;
#X connect 77 0 130 0;
#X connect 78 0 65 1;
#X connect 79 0 131 1;
#X connect 80 0 81 1;
#X connect 81 0 92 0;
#X connect 82 0 136 0;
#X connect 83 0 84 0;
#X connect 84 0 85 0;
#X connect 85 0 86 0;
#X connect 87 0 96 0;
#X connect 87 1 82 1;
#X connect 87 1 83 0;
#X connect 88 0 81 0;
#X connect 88 0 94 0;
#X connect 88 0 128 0;
#X connect 89 0 88 0;
#X connect 90 1 88 1;
#X connect 91 0 90 0;
#X connect 91 0 102 0;
#X connect 92 0 82 0;
#X connect 94 0 95 0;
#X connect 95 0 93 0;
#X connect 96 0 89 0;
#X connect 97 0 98 0;
#X connect 98 0 96 1;
#X connect 99 0 101 1;
#X connect 100 0 101 0;
#X connect 101 0 131 0;
#X connect 102 0 89 1;
#X connect 103 0 132 1;
#X connect 104 0 105 1;
#X connect 105 0 116 0;
#X connect 106 0 137 0;
#X connect 107 0 108 0;
#X connect 108 0 109 0;
#X connect 109 0 110 0;
#X connect 111 0 120 0;
#X connect 111 1 106 1;
#X connect 111 1 107 0;
#X connect 112 0 105 0;
#X connect 112 0 118 0;
#X connect 112 0 129 0;
#X connect 113 0 112 0;
#X connect 114 1 112 1;
#X connect 115 0 114 0;
#X connect 115 0 126 0;
#X connect 116 0 106 0;
#X connect 118 0 119 0;
#X connect 119 0 117 0;
#X connect 120 0 113 0;
#X connect 121 0 122 0;
#X connect 122 0 120 1;
#X connect 123 0 125 1;
#X connect 124 0 125 0;
#X connect 125 0 132 0;
#X connect 126 0 113 1;
#X connect 130 0 63 0;
#X connect 131 0 87 0;
#X connect 132 0 111 0;
#X restore 129 58 pd sampleplayer;
#X obj 422 120 bng 19 250 50 0 empty empty empty 0 -10 0 12 #9f9f9f #000000 #000000;
#N canvas 504 222 415 350 sampleloader 0;
#X obj 18 89 openpanel;
#X obj 18 264 soundfiler, f 14;
#X obj 113 286 unpack f;
#X obj 18 118 pack s f, f 11;
#X obj 18 309 s \$0-slength;
#X obj 92 64 loadbang;
#X obj 92 89 f \$0;
#X obj 33 143 unpack s;
#X obj 113 309 s \$0-srate;
#X obj 100 213 s \$0-filename;
#X obj 18 14 inlet;
#X text 206 161 Define array for second channel. Only channel 1 is used for display., f 23;
#X msg 18 239 read -resize \$1 \$2-rs_array \$2-rs_array2;
#X obj 33 166 file splitname;
#X obj 33 190 unpack s s;
#X obj 209 213 array define \$0-rs_array2;
#X obj 18 38 route bang symbol;
#X msg 112 118 \; \$1-rs_array edit 0;
#X msg 168 38 vis \$1;
#X obj 168 64 s \$0-rs_array;
#X obj 168 14 r \$0-vis;
#X obj 281 14 loadbang;
#X msg 281 38 1, f 1;
#X obj 281 64 s \$0-visdummy;
#X connect 0 0 3 0;
#X connect 1 0 4 0;
#X connect 1 1 2 0;
#X connect 2 0 8 0;
#X connect 3 0 12 0;
#X connect 3 0 7 0;
#X connect 5 0 6 0;
#X connect 6 0 3 1;
#X connect 6 0 17 0;
#X connect 7 0 13 0;
#X connect 10 0 16 0;
#X connect 12 0 1 0;
#X connect 13 0 14 0;
#X connect 14 1 9 0;
#X connect 16 0 0 0;
#X connect 16 1 3 0;
#X connect 18 0 19 0;
#X connect 20 0 18 0;
#X connect 21 0 22 0;
#X connect 22 0 23 0;
#X restore 10 58 pd sampleloader;
#X obj 10 10 inlet load sample;
#X obj 258 10 inlet playback;
#X obj 10 264 outlet~;
#X obj 20 189 bng 15 250 50 0 \$0-load \$0-loaddummy empty 0 -10 0 12 #c6feff #000000 #000000;
#X obj 205 91 tgl 15 0 \$0-tgl \$0-tgldummy empty 0 -10 0 12 #c6ffc7 #000000 #000000 0 1;
#X obj 129 34 r \$0-tgl;
#X obj 20 34 r \$0-load;
#X obj 258 58 s \$0-tgldummy;
#X obj 129 264 outlet;
#X obj 148 189 hsl 70 15 0 1 0 0 \$0-meindicdummy \$0-meindic Metabar 18 8 0 8 #fcfcfc #000000 #000000 0 1;
#N canvas 53 121 1152 251 detector 0;
#X obj 12 83 samphold~;
#X obj 12 128 snapshot~;
#X obj 40 106 bang~;
#X obj 12 151 change;
#X obj 12 59 abs~;
#X obj 218 83 samphold~;
#X obj 218 128 snapshot~;
#X obj 246 106 bang~;
#X obj 218 151 change;
#X obj 218 59 abs~;
#X obj 425 83 samphold~;
#X obj 425 128 snapshot~;
#X obj 453 106 bang~;
#X obj 425 151 change;
#X obj 425 59 abs~;
#X obj 631 83 samphold~;
#X obj 631 128 snapshot~;
#X obj 659 106 bang~;
#X obj 631 151 change;
#X obj 631 59 abs~;
#X obj 837 83 samphold~;
#X obj 837 128 snapshot~;
#X obj 865 106 bang~;
#X obj 837 151 change;
#X obj 837 59 abs~;
#X obj 915 11 r \$0-directionsig;
#X obj 708 11 r \$0-directionsig;
#X obj 503 11 r \$0-directionsig;
#X obj 296 11 r \$0-directionsig;
#X obj 90 11 r \$0-directionsig;
#X obj 837 35 expr~ $v2-$v1;
#X obj 631 35 expr~ $v2-$v1;
#X obj 425 35 expr~ $v2-$v1;
#X obj 218 35 expr~ $v2-$v1;
#X obj 12 35 expr~ $v2-$v1;
#X obj 425 222 outlet;
#X obj 953 76 r \$0-strmtrg;
#X obj 953 100 expr if($f1 == 0 \, 1 \, 0) \; if($f1 == 1 \, 1 \, 0) \; if($f1 == 2 \, 1 \, 0) \; if($f1 == 3 \, 1 \, 0) \; if($f1 == 4 \, 1 \, 0);
#X obj 12 175 spigot;
#X obj 218 175 spigot;
#X obj 425 175 spigot;
#X obj 631 175 spigot;
#X obj 837 175 spigot;
#X obj 12 11 r~ \$0-tlT1;
#X obj 218 11 r~ \$0-tlT2;
#X obj 425 11 r~ \$0-tlT3;
#X obj 631 11 r~ \$0-tlT4;
#X obj 837 11 r~ \$0-tlT5;
#X connect 0 0 1 0;
#X connect 1 0 3 0;
#X connect 2 0 1 0;
#X connect 3 0 38 0;
#X connect 4 0 0 1;
#X connect 4 0 0 0;
#X connect 5 0 6 0;
#X connect 6 0 8 0;
#X connect 7 0 6 0;
#X connect 8 0 39 0;
#X connect 9 0 5 1;
#X connect 9 0 5 0;
#X connect 10 0 11 0;
#X connect 11 0 13 0;
#X connect 12 0 11 0;
#X connect 13 0 40 0;
#X connect 14 0 10 1;
#X connect 14 0 10 0;
#X connect 15 0 16 0;
#X connect 16 0 18 0;
#X connect 17 0 16 0;
#X connect 18 0 41 0;
#X connect 19 0 15 1;
#X connect 19 0 15 0;
#X connect 20 0 21 0;
#X connect 21 0 23 0;
#X connect 22 0 21 0;
#X connect 23 0 42 0;
#X connect 24 0 20 1;
#X connect 24 0 20 0;
#X connect 25 0 30 1;
#X connect 26 0 31 1;
#X connect 27 0 32 1;
#X connect 28 0 33 1;
#X connect 29 0 34 1;
#X connect 30 0 24 0;
#X connect 31 0 19 0;
#X connect 32 0 14 0;
#X connect 33 0 9 0;
#X connect 34 0 4 0;
#X connect 36 0 37 0;
#X connect 37 0 38 1;
#X connect 37 1 39 1;
#X connect 37 2 40 1;
#X connect 37 3 41 1;
#X connect 37 4 42 1;
#X connect 38 0 35 0;
#X connect 39 0 35 0;
#X connect 40 0 35 0;
#X connect 41 0 35 0;
#X connect 42 0 35 0;
#X connect 43 0 34 0;
#X connect 44 0 33 0;
#X connect 45 0 32 0;
#X connect 46 0 31 0;
#X connect 47 0 30 0;
#X restore 129 241 pd detector;
#X obj 170 91 hradio 15 1 0 2 \$0-direction \$0-directiondummy +\ - 4 8 0 12 #fcfcfc #000000 #000000 0;
#X obj 258 82 s \$0-directiondummy;
#X obj 20 169 tgl 15 0 \$0-vis \$0-visdummy Plot 18 8 0 8 #ffc7c6 #000000 #000000 0 1;
#X obj 258 106 s \$0-visdummy;
#X obj 145 209 hradio 15 1 0 5 \$0-strmtrg \$0-strmtrginit Stream\ Trg. -57 8 0 8 #fcfcfc #000000 #000000 0;
#X text 182 263 <- Bang on stream restarts. Select via Stream trg.;
#N canvas 672 52 215 155 presets 0;
#X obj 16 11 loadbang;
#X obj 16 35 f \$0;
#X msg 16 59 \; \$1-directiondummy 0 \; \$1-visdummy 1 \; \$1-tgldummy 0 \; \$1-strmtrginit 3;
#X connect 0 0 1 0;
#X connect 1 0 2 0;
#X restore 258 159 pd presets;
#X obj 258 34 unpack f f f f;
#X obj 258 130 s \$0-strmtrginit;
#X obj 10 241 catch~ \$0-sum 2;
#X text 446 119 <- click to open papers;
#N canvas 266 304 380 227 papers 0;
#X obj 11 13 inlet;
#X obj 11 195 pdcontrol;
#X msg 43 62 browse https://www.semanticscholar.org/paper/Scheduling-and-composing-with-Risset-eternal-Stowell/df6a5bf9566d609b120fe06cd7c2541f6aea453c, f 44;
#X obj 11 37 t b b;
#X msg 11 129 browse https://www.tandfonline.com/doi/abs/10.1080/17459737.2021.2001699, f 22;
#X connect 0 0 3 0;
#X connect 2 0 1 0;
#X connect 3 0 4 0;
#X connect 3 1 2 0;
#X connect 4 0 1 0;
#X restore 422 142 pd papers;
#X text 580 170 PD-risset, f 24;
#X text 580 187 Martin Heinze \, 2024-2026;
#X text 419 9 jaycee is a modular implementation of Risset eternal accelerando rhythms for audio samples described by Dan Stowell in his 2011 paper "SCHEDULING AND COMPOSING WITH RISSET ETERNAL ACCELERANDO RHYTHMS" - with updates suggested in Daniele Ghisi's "BARBERPOLE TEMPO ILLUSIONS" (2023), f 47;
#X connect 3 0 27 0;
#X connect 5 0 4 0;
#X connect 6 0 23 0;
#X connect 10 0 2 0;
#X connect 11 0 4 0;
#X connect 15 0 13 0;
#X connect 23 0 12 0;
#X connect 23 1 17 0;
#X connect 23 2 19 0;
#X connect 23 3 24 0;
#X connect 25 0 7 0;
#X coords 0 -1 1 1 220 145 2 10 85;
