#N canvas 683 361 699 304 12;
#N canvas 830 139 450 278 (subpatch) 0;
#X array \$0-rs_array 241920 float 2;
#A color 0;
#A width 2;
#X coords 0 1 241920 -1 200 75 2 0 0;
#X restore 20 109 graph;
#X symbolatom 38 189 17 0 0 0 - \$0-filename \$0-filenamedummy 10;
#N canvas 220 34 1242 468 sampleplayer 0;
#X obj 9 10 inlet playback;
#X obj 9 34 s \$0-rares;
#X obj 292 34 r \$0-b;
#X obj 289 262 r \$0-slength;
#X obj 264 284 *~, f 4;
#X obj 264 332 *~;
#X obj 339 121 env~;
#X obj 339 142 dbtorms;
#X floatatom 339 163 5 0 0 0 - - - 0;
#X obj 339 186 vsl 19 65 0 1 0 0 empty empty empty 0 -9 0 12 #fcfcfc #000000 #000000 0 1;
#X obj 208 78 snake~ out, f 11;
#X obj 208 258 phasor~, f 9;
#X obj 208 205 *~;
#X obj 236 206 sel 1;
#X obj 236 149 r \$0-rares;
#N canvas 925 348 306 91 pb_stereo 0;
#X obj 10 13 inlet~;
#X obj 10 59 outlet~;
#X obj 245 13 sig~ 1;
#X obj 10 36 tabread4~ \$0-rs_array \$0-rs_array2;
#X connect 0 0 3 0;
#X connect 2 0 3 1;
#X connect 3 0 1 0;
#X restore 264 308 pd pb_stereo;
#X obj 211 432 hsl 65 19 0 1 0 0 empty empty empty 12 10 0 12 #fcfcfc #000000 #000000 0 1;
#X obj 208 332 env~;
#X obj 208 406 dbtorms;
#X obj 208 149 *~;
#X obj 226 102 r \$0-rc;
#X obj 226 125 sig~;
#X obj 208 10 r~ \$0-tet;
#X obj 208 34 snake~, f 11;
#X obj 226 173 sig~;
#X obj 496 34 r \$0-b;
#X obj 493 262 r \$0-slength;
#X obj 468 284 *~, f 4;
#X obj 468 332 *~;
#X obj 412 78 snake~ out, f 11;
#X obj 412 258 phasor~, f 9;
#X obj 412 205 *~;
#X obj 440 206 sel 1;
#X obj 440 149 r \$0-rares;
#N canvas 925 348 306 91 pb_stereo 0;
#X obj 10 13 inlet~;
#X obj 10 59 outlet~;
#X obj 245 13 sig~ 1;
#X obj 10 36 tabread4~ \$0-rs_array \$0-rs_array2;
#X connect 0 0 3 0;
#X connect 2 0 3 1;
#X connect 3 0 1 0;
#X restore 468 308 pd pb_stereo;
#X obj 415 432 hsl 65 19 0 1 0 0 empty empty empty 12 10 0 12 #fcfcfc #000000 #000000 0 1;
#X obj 412 332 env~;
#X obj 412 406 dbtorms;
#X obj 412 149 *~;
#X obj 430 102 r \$0-rc;
#X obj 430 125 sig~;
#X obj 412 10 r~ \$0-tet;
#X obj 412 34 snake~, f 11;
#X obj 430 173 sig~;
#X obj 382 308 s~ \$0-tlT2;
#X obj 178 308 s~ \$0-tlT1;
#X obj 702 34 r \$0-b;
#X obj 699 262 r \$0-slength;
#X obj 674 284 *~, f 4;
#X obj 674 332 *~;
#X obj 618 78 snake~ out, f 11;
#X obj 618 258 phasor~, f 9;
#X obj 618 205 *~;
#X obj 646 206 sel 1;
#X obj 646 149 r \$0-rares;
#N canvas 925 348 306 91 pb_stereo 0;
#X obj 10 13 inlet~;
#X obj 10 59 outlet~;
#X obj 245 13 sig~ 1;
#X obj 10 36 tabread4~ \$0-rs_array \$0-rs_array2;
#X connect 0 0 3 0;
#X connect 2 0 3 1;
#X connect 3 0 1 0;
#X restore 674 308 pd pb_stereo;
#X obj 621 432 hsl 65 19 0 1 0 0 empty empty empty 12 10 0 12 #fcfcfc #000000 #000000 0 1;
#X obj 618 332 env~;
#X obj 618 406 dbtorms;
#X obj 618 149 *~;
#X obj 636 102 r \$0-rc;
#X obj 636 125 sig~;
#X obj 618 10 r~ \$0-tet;
#X obj 618 34 snake~, f 11;
#X obj 636 173 sig~;
#X obj 906 34 r \$0-b;
#X obj 903 262 r \$0-slength;
#X obj 878 284 *~, f 4;
#X obj 878 332 *~;
#X obj 822 78 snake~ out, f 11;
#X obj 822 258 phasor~, f 9;
#X obj 822 205 *~;
#X obj 850 206 sel 1;
#X obj 850 149 r \$0-rares;
#N canvas 925 348 306 91 pb_stereo 0;
#X obj 10 13 inlet~;
#X obj 10 59 outlet~;
#X obj 245 13 sig~ 1;
#X obj 10 36 tabread4~ \$0-rs_array \$0-rs_array2;
#X connect 0 0 3 0;
#X connect 2 0 3 1;
#X connect 3 0 1 0;
#X restore 878 308 pd pb_stereo;
#X obj 825 432 hsl 65 19 0 1 0 0 empty empty empty 12 10 0 12 #fcfcfc #000000 #000000 0 1;
#X obj 822 332 env~;
#X obj 822 406 dbtorms;
#X obj 822 149 *~;
#X obj 840 102 r \$0-rc;
#X obj 840 125 sig~;
#X obj 822 10 r~ \$0-tet;
#X obj 822 34 snake~, f 11;
#X obj 840 173 sig~;
#X obj 1116 34 r \$0-b;
#X obj 1113 262 r \$0-slength;
#X obj 1088 284 *~, f 4;
#X obj 1088 332 *~;
#X obj 1032 78 snake~ out, f 11;
#X obj 1032 258 phasor~, f 9;
#X obj 1032 205 *~;
#X obj 1060 206 sel 1;
#X obj 1060 149 r \$0-rares;
#N canvas 925 348 306 91 pb_stereo 0;
#X obj 10 13 inlet~;
#X obj 10 59 outlet~;
#X obj 245 13 sig~ 1;
#X obj 10 36 tabread4~ \$0-rs_array \$0-rs_array2;
#X connect 0 0 3 0;
#X connect 2 0 3 1;
#X connect 3 0 1 0;
#X restore 1088 308 pd pb_stereo;
#X obj 1035 432 hsl 65 19 0 1 0 0 empty empty empty 12 10 0 12 #fcfcfc #000000 #000000 0 1;
#X obj 1032 332 env~;
#X obj 1032 406 dbtorms;
#X obj 1032 149 *~;
#X obj 1050 102 r \$0-rc;
#X obj 1050 125 sig~;
#X obj 1032 10 r~ \$0-tet;
#X obj 1032 34 snake~, f 11;
#X obj 1050 173 sig~;
#X obj 588 308 s~ \$0-tlT3;
#X obj 792 308 s~ \$0-tlT4;
#X obj 1002 308 s~ \$0-tlT5;
#N canvas 625 132 393 192 metabar 0;
#X obj 21 40 r \$0-slength;
#X obj 11 110 *, f 5;
#X obj 11 155 s \$0-tmeta;
#X obj 21 87 t b f;
#X floatatom 21 64 10 0 0 0 - - - 0;
#X floatatom 11 133 11 0 0 0 - - - 0;
#X text 102 63 T (duration of original loop in samples);
#X text 101 132 τ (duration of metabar in samples);
#X obj 11 14 r \$0-mb;
#X connect 0 0 4 0;
#X connect 1 0 5 0;
#X connect 3 0 1 0;
#X connect 3 1 1 1;
#X connect 4 0 3 0;
#X connect 5 0 2 0;
#X connect 8 0 1 0;
#X restore 9 94 pd metabar;
#N canvas 757 151 406 311 tet 0;
#X obj 96 14 r \$0-tmeta;
#X obj 191 14 r \$0-srate;
#X floatatom 96 59 9 0 0 0 - - - 0;
#X obj 96 37 expr 1/$f1*$f2;
#X obj 68 214 phasor~;
#X text 128 213 te/τ;
#X obj 68 121 *, f 9;
#X obj 83 191 sel 1;
#X obj 68 236 s~ \$0-tet;
#X obj 68 99 f, f 2;
#X obj 96 81 t b f;
#N canvas 836 89 282 184 switch 0;
#X obj 12 9 inlet;
#X msg 84 58 -1, f 2;
#X msg 61 58 1, f 1;
#X obj 61 33 sel 0 1;
#X text 34 127 Accelerando/ decelerando, f 26;
#X obj 61 81 sig~;
#X obj 61 105 s~ \$0-directionsig;
#X obj 61 9 r \$0-direction;
#X obj 172 51 s \$0-tgldummy;
#X msg 172 28 0, f 1;
#X obj 12 33 sig~;
#X obj 12 126 *~, f 2;
#X obj 12 148 outlet~;
#X connect 0 0 10 0;
#X connect 1 0 5 0;
#X connect 2 0 5 0;
#X connect 3 0 2 0;
#X connect 3 1 1 0;
#X connect 5 0 6 0;
#X connect 5 0 11 1;
#X connect 7 0 3 0;
#X connect 7 0 9 0;
#X connect 9 0 8 0;
#X connect 10 0 11 0;
#X connect 11 0 12 0;
#X restore 68 145 pd switch;
#X text 141 144 <- Accelerando/ Decelerando switch.;
#X obj 12 14 r \$0-rares;
#X obj 83 168 r \$0-rares;
#X obj 190 233 env~;
#X obj 190 257 dbtorms;
#X obj 193 280 hsl 85 19 0 1 0 0 \$0-meindic empty 1\ Metabar 10 10 0 12 #fcfcfc #000000 #000000 0 1;
#X connect 0 0 3 0;
#X connect 1 0 3 1;
#X connect 2 0 10 0;
#X connect 3 0 2 0;
#X connect 4 0 8 0;
#X connect 4 0 15 0;
#X connect 6 0 11 0;
#X connect 7 1 4 1;
#X connect 9 0 6 0;
#X connect 10 0 9 0;
#X connect 10 1 6 1;
#X connect 11 0 4 0;
#X connect 13 0 9 0;
#X connect 14 0 7 0;
#X connect 15 0 16 0;
#X connect 16 0 17 0;
#X restore 88 94 pd tet;
#N canvas 614 577 308 121 rc 0;
#X obj 112 13 r \$0-srate;
#X obj 10 36 expr 1/$f1*$f2, f 15;
#X obj 10 13 r \$0-slength;
#X floatatom 10 59 13 0 0 0 - - - 12;
#X obj 10 81 s \$0-rc;
#X text 113 58 rc (center playback rate);
#X connect 0 0 1 1;
#X connect 1 0 3 0;
#X connect 2 0 1 0;
#X connect 3 0 4 0;
#X restore 9 117 pd rc;
#X text 9 71 Helpers;
#N canvas 157 222 178 227 tlogDt 0;
#X obj 11 28 r \$0-slength;
#X obj 11 126 /;
#X obj 21 103 t b f;
#X obj 21 80 r \$0-tmeta;
#X floatatom 11 149 13 0 0 0 - - - 0;
#X obj 11 172 sig~;
#X obj 11 52 expr $f1*ln($f2);
#X obj 120 28 r \$0-D;
#X text 9 5 T*logD/τ;
#X obj 11 196 s~ \$0-tlogDt;
#X connect 0 0 6 0;
#X connect 1 0 4 0;
#X connect 2 0 1 0;
#X connect 2 1 1 1;
#X connect 3 0 2 0;
#X connect 4 0 5 0;
#X connect 5 0 9 0;
#X connect 6 0 1 0;
#X connect 7 0 6 1;
#X restore 53 117 pd tlogDt;
#X obj 282 10 r~ \$0-tlogDt;
#X obj 486 10 r~ \$0-tlogDt;
#X obj 692 10 r~ \$0-tlogDt;
#X obj 896 10 r~ \$0-tlogDt;
#X obj 1106 10 r~ \$0-tlogDt;
#X obj 345 34 r \$0-D;
#X obj 549 34 r \$0-D;
#X obj 755 34 r \$0-D;
#X obj 959 34 r \$0-D;
#X obj 1169 34 r \$0-D;
#N canvas 911 367 289 278 vals 0;
#X obj 15 178 s \$0-b;
#X obj 15 78 r \$0-mb;
#X floatatom 15 155 5 0 0 0 - \$0-binit - 0;
#X obj 15 100 * 4;
#X text 95 77 With 5 streams \, the most convincing barberpole effect (lowest total amplitude variation \, no audible jumps on metabar restart) seems to happen when `4 * τ = b`, f 24;
#X obj 15 39 s \$0-mb;
#X floatatom 15 17 5 1 32 0 - \$0-mbinit - 0;
#X text 96 16 Metabar duration factor \, e.g. τ = T * 8, f 24;
#X obj 15 239 s \$0-D;
#X floatatom 15 217 5 0 0 0 - \$0-Dinit - 0;
#X text 95 216 D = 2 -> Stowell, f 24;
#X obj 15 124 s \$0-binit;
#X connect 1 0 3 0;
#X connect 2 0 0 0;
#X connect 3 0 11 0;
#X connect 6 0 5 0;
#X connect 9 0 8 0;
#X restore 9 156 pd vals;
#X obj 208 56 stream~ 1, f 20;
#X obj 412 56 stream~ 2, f 20;
#X obj 618 56 stream~ 3, f 20;
#X obj 822 56 stream~ 4, f 20;
#X obj 1032 56 stream~ 5, f 20;
#X text 66 155 <- Change params;
#X obj 264 381 *~, f 5;
#X obj 296 332 r \$0-s1tgl;
#X obj 296 356 sig~;
#X obj 468 381 *~, f 5;
#X obj 500 356 sig~;
#X obj 500 332 r \$0-s2tgl;
#X obj 674 381 *~, f 5;
#X obj 706 356 sig~;
#X obj 878 381 *~, f 5;
#X obj 910 356 sig~;
#X obj 706 332 r \$0-s3tgl;
#X obj 910 332 r \$0-s4tgl;
#X obj 1088 381 *~, f 5;
#X obj 1120 356 sig~;
#X obj 1120 332 r \$0-s5tgl;
#X obj 321 78 r \$0-apow;
#X obj 282 102 pow~ 1;
#X obj 543 121 env~;
#X obj 543 142 dbtorms;
#X floatatom 543 163 5 0 0 0 - - - 0;
#X obj 543 186 vsl 19 65 0 1 0 0 empty empty empty 0 -9 0 12 #fcfcfc #000000 #000000 0 1;
#X obj 525 78 r \$0-apow;
#X obj 486 102 pow~ 1;
#X obj 749 121 env~;
#X obj 749 142 dbtorms;
#X floatatom 749 163 5 0 0 0 - - - 0;
#X obj 749 186 vsl 19 65 0 1 0 0 empty empty empty 0 -9 0 12 #fcfcfc #000000 #000000 0 1;
#X obj 731 78 r \$0-apow;
#X obj 692 102 pow~ 1;
#X obj 953 121 env~;
#X obj 953 142 dbtorms;
#X floatatom 953 163 5 0 0 0 - - - 0;
#X obj 953 186 vsl 19 65 0 1 0 0 empty empty empty 0 -9 0 12 #fcfcfc #000000 #000000 0 1;
#X obj 935 78 r \$0-apow;
#X obj 896 102 pow~ 1;
#X obj 1163 121 env~;
#X obj 1163 142 dbtorms;
#X floatatom 1163 163 5 0 0 0 - - - 0;
#X obj 1163 186 vsl 19 65 0 1 0 0 empty empty empty 0 -9 0 12 #fcfcfc #000000 #000000 0 1;
#X obj 1145 78 r \$0-apow;
#X obj 1106 102 pow~ 1;
#X text 9 194 Stream amplitude calculation have an additional weight control via [pow~ X] and the slider in the main control interface. Still experimental \, but the idea is to make audio around center playback rate more prominent., f 22;
#X obj 264 406 s~ \$0-s1 2;
#X obj 468 406 s~ \$0-s2 2;
#X obj 674 406 s~ \$0-s3 2;
#X obj 878 406 s~ \$0-s4 2;
#X obj 1088 406 s~ \$0-s5 2;
#X connect 0 0 1 0;
#X connect 2 0 122 1;
#X connect 3 0 4 1;
#X connect 4 0 15 0;
#X connect 5 0 128 0;
#X connect 6 0 7 0;
#X connect 7 0 8 0;
#X connect 8 0 9 0;
#X connect 10 0 19 0;
#X connect 10 1 144 0;
#X connect 11 0 4 0;
#X connect 11 0 17 0;
#X connect 11 0 45 0;
#X connect 12 0 11 0;
#X connect 13 1 11 1;
#X connect 14 0 13 0;
#X connect 14 0 24 0;
#X connect 15 0 5 0;
#X connect 17 0 18 0;
#X connect 18 0 16 0;
#X connect 19 0 12 0;
#X connect 20 0 21 0;
#X connect 21 0 19 1;
#X connect 22 0 23 0;
#X connect 23 0 122 0;
#X connect 24 0 12 1;
#X connect 25 0 123 1;
#X connect 26 0 27 1;
#X connect 27 0 34 0;
#X connect 28 0 131 0;
#X connect 29 0 38 0;
#X connect 29 1 150 0;
#X connect 30 0 27 0;
#X connect 30 0 36 0;
#X connect 30 0 44 0;
#X connect 31 0 30 0;
#X connect 32 1 30 1;
#X connect 33 0 32 0;
#X connect 33 0 43 0;
#X connect 34 0 28 0;
#X connect 36 0 37 0;
#X connect 37 0 35 0;
#X connect 38 0 31 0;
#X connect 39 0 40 0;
#X connect 40 0 38 1;
#X connect 41 0 42 0;
#X connect 42 0 123 0;
#X connect 43 0 31 1;
#X connect 46 0 124 1;
#X connect 47 0 48 1;
#X connect 48 0 55 0;
#X connect 49 0 134 0;
#X connect 50 0 59 0;
#X connect 50 1 156 0;
#X connect 51 0 48 0;
#X connect 51 0 57 0;
#X connect 51 0 103 0;
#X connect 52 0 51 0;
#X connect 53 1 51 1;
#X connect 54 0 53 0;
#X connect 54 0 64 0;
#X connect 55 0 49 0;
#X connect 57 0 58 0;
#X connect 58 0 56 0;
#X connect 59 0 52 0;
#X connect 60 0 61 0;
#X connect 61 0 59 1;
#X connect 62 0 63 0;
#X connect 63 0 124 0;
#X connect 64 0 52 1;
#X connect 65 0 125 1;
#X connect 66 0 67 1;
#X connect 67 0 74 0;
#X connect 68 0 136 0;
#X connect 69 0 78 0;
#X connect 69 1 162 0;
#X connect 70 0 67 0;
#X connect 70 0 76 0;
#X connect 70 0 104 0;
#X connect 71 0 70 0;
#X connect 72 1 70 1;
#X connect 73 0 72 0;
#X connect 73 0 83 0;
#X connect 74 0 68 0;
#X connect 76 0 77 0;
#X connect 77 0 75 0;
#X connect 78 0 71 0;
#X connect 79 0 80 0;
#X connect 80 0 78 1;
#X connect 81 0 82 0;
#X connect 82 0 125 0;
#X connect 83 0 71 1;
#X connect 84 0 126 1;
#X connect 85 0 86 1;
#X connect 86 0 93 0;
#X connect 87 0 140 0;
#X connect 88 0 97 0;
#X connect 88 1 168 0;
#X connect 89 0 95 0;
#X connect 89 0 105 0;
#X connect 89 0 86 0;
#X connect 90 0 89 0;
#X connect 91 1 89 1;
#X connect 92 0 91 0;
#X connect 92 0 102 0;
#X connect 93 0 87 0;
#X connect 95 0 96 0;
#X connect 96 0 94 0;
#X connect 97 0 90 0;
#X connect 98 0 99 0;
#X connect 99 0 97 1;
#X connect 100 0 101 0;
#X connect 101 0 126 0;
#X connect 102 0 90 1;
#X connect 111 0 23 1;
#X connect 112 0 42 1;
#X connect 113 0 63 1;
#X connect 114 0 82 1;
#X connect 115 0 101 1;
#X connect 116 0 122 2;
#X connect 117 0 123 2;
#X connect 118 0 124 2;
#X connect 119 0 125 2;
#X connect 120 0 126 2;
#X connect 122 0 10 0;
#X connect 123 0 29 0;
#X connect 124 0 50 0;
#X connect 125 0 69 0;
#X connect 126 0 88 0;
#X connect 128 0 170 0;
#X connect 129 0 130 0;
#X connect 130 0 128 1;
#X connect 131 0 171 0;
#X connect 132 0 131 1;
#X connect 133 0 132 0;
#X connect 134 0 172 0;
#X connect 135 0 134 1;
#X connect 136 0 173 0;
#X connect 137 0 136 1;
#X connect 138 0 135 0;
#X connect 139 0 137 0;
#X connect 140 0 174 0;
#X connect 141 0 140 1;
#X connect 142 0 141 0;
#X connect 143 0 144 1;
#X connect 144 0 5 1;
#X connect 144 0 6 0;
#X connect 145 0 146 0;
#X connect 146 0 147 0;
#X connect 147 0 148 0;
#X connect 149 0 150 1;
#X connect 150 0 145 0;
#X connect 150 0 28 1;
#X connect 151 0 152 0;
#X connect 152 0 153 0;
#X connect 153 0 154 0;
#X connect 155 0 156 1;
#X connect 156 0 151 0;
#X connect 156 0 49 1;
#X connect 157 0 158 0;
#X connect 158 0 159 0;
#X connect 159 0 160 0;
#X connect 161 0 162 1;
#X connect 162 0 157 0;
#X connect 162 0 68 1;
#X connect 163 0 164 0;
#X connect 164 0 165 0;
#X connect 165 0 166 0;
#X connect 167 0 168 1;
#X connect 168 0 163 0;
#X connect 168 0 87 1;
#X restore 129 58 pd sampleplayer;
#X obj 382 140 bng 19 250 50 0 empty empty empty 0 -10 0 12 #9f9f9f #000000 #000000;
#N canvas 504 222 415 350 sampleloader 0;
#X obj 18 89 openpanel;
#X obj 18 264 soundfiler, f 14;
#X obj 113 286 unpack f;
#X obj 18 118 pack s f, f 11;
#X obj 18 309 s \$0-slength;
#X obj 92 64 loadbang;
#X obj 92 89 f \$0;
#X obj 33 143 unpack s;
#X obj 113 309 s \$0-srate;
#X obj 100 213 s \$0-filename;
#X obj 18 14 inlet;
#X text 206 161 Define array for second channel. Only channel 1 is used for display., f 23;
#X msg 18 239 read -resize \$1 \$2-rs_array \$2-rs_array2;
#X obj 33 166 file splitname;
#X obj 33 190 unpack s s;
#X obj 209 213 array define \$0-rs_array2;
#X obj 18 38 route bang symbol;
#X msg 112 118 \; \$1-rs_array edit 0;
#X msg 168 38 vis \$1;
#X obj 168 64 s \$0-rs_array;
#X obj 168 14 r \$0-vis;
#X obj 281 14 loadbang;
#X msg 281 38 1, f 1;
#X obj 281 64 s \$0-visdummy;
#X connect 0 0 3 0;
#X connect 1 0 4 0;
#X connect 1 1 2 0;
#X connect 2 0 8 0;
#X connect 3 0 12 0;
#X connect 3 0 7 0;
#X connect 5 0 6 0;
#X connect 6 0 3 1;
#X connect 6 0 17 0;
#X connect 7 0 13 0;
#X connect 10 0 16 0;
#X connect 12 0 1 0;
#X connect 13 0 14 0;
#X connect 14 1 9 0;
#X connect 16 0 0 0;
#X connect 16 1 3 0;
#X connect 18 0 19 0;
#X connect 20 0 18 0;
#X connect 21 0 22 0;
#X connect 22 0 23 0;
#X restore 10 58 pd sampleloader;
#X obj 10 10 inlet load sample;
#X obj 10 264 outlet~;
#X obj 20 189 bng 15 250 50 0 \$0-load \$0-loaddummy empty 0 -10 0 12 #c6feff #000000 #000000;
#X obj 205 91 tgl 15 0 \$0-tgl \$0-tglinit empty 0 -10 0 12 #c6ffc7 #000000 #000000 0 1;
#X obj 129 34 r \$0-tgl;
#X obj 20 34 r \$0-load;
#X obj 234 264 outlet;
#X obj 148 189 hsl 70 15 0 1 0 0 \$0-meindicdummy \$0-meindic Metabar 18 8 0 8 #fcfcfc #000000 #000000 0 1;
#N canvas 53 121 1152 275 detector 0;
#X obj 12 83 samphold~;
#X obj 12 128 snapshot~;
#X obj 40 106 bang~;
#X obj 12 151 change;
#X obj 12 59 abs~;
#X obj 218 83 samphold~;
#X obj 218 128 snapshot~;
#X obj 246 106 bang~;
#X obj 218 151 change;
#X obj 218 59 abs~;
#X obj 425 83 samphold~;
#X obj 425 128 snapshot~;
#X obj 453 106 bang~;
#X obj 425 151 change;
#X obj 425 59 abs~;
#X obj 631 83 samphold~;
#X obj 631 128 snapshot~;
#X obj 659 106 bang~;
#X obj 631 151 change;
#X obj 631 59 abs~;
#X obj 837 83 samphold~;
#X obj 837 128 snapshot~;
#X obj 865 106 bang~;
#X obj 837 151 change;
#X obj 837 59 abs~;
#X obj 915 11 r \$0-directionsig;
#X obj 708 11 r \$0-directionsig;
#X obj 503 11 r \$0-directionsig;
#X obj 296 11 r \$0-directionsig;
#X obj 90 11 r \$0-directionsig;
#X obj 837 35 expr~ $v2-$v1;
#X obj 631 35 expr~ $v2-$v1;
#X obj 425 35 expr~ $v2-$v1;
#X obj 218 35 expr~ $v2-$v1;
#X obj 12 35 expr~ $v2-$v1;
#X obj 425 245 outlet;
#X obj 953 76 r \$0-strmtrg;
#X obj 953 100 expr if($f1 == 0 \, 1 \, 0) \; if($f1 == 1 \, 1 \, 0) \; if($f1 == 2 \, 1 \, 0) \; if($f1 == 3 \, 1 \, 0) \; if($f1 == 4 \, 1 \, 0);
#X obj 12 175 spigot;
#X obj 218 175 spigot;
#X obj 425 175 spigot;
#X obj 631 175 spigot;
#X obj 837 175 spigot;
#X obj 12 11 r~ \$0-tlT1;
#X obj 218 11 r~ \$0-tlT2;
#X obj 425 11 r~ \$0-tlT3;
#X obj 631 11 r~ \$0-tlT4;
#X obj 837 11 r~ \$0-tlT5;
#X msg 425 222 bang;
#X connect 0 0 1 0;
#X connect 1 0 3 0;
#X connect 2 0 1 0;
#X connect 3 0 38 0;
#X connect 4 0 0 1;
#X connect 4 0 0 0;
#X connect 5 0 6 0;
#X connect 6 0 8 0;
#X connect 7 0 6 0;
#X connect 8 0 39 0;
#X connect 9 0 5 1;
#X connect 9 0 5 0;
#X connect 10 0 11 0;
#X connect 11 0 13 0;
#X connect 12 0 11 0;
#X connect 13 0 40 0;
#X connect 14 0 10 1;
#X connect 14 0 10 0;
#X connect 15 0 16 0;
#X connect 16 0 18 0;
#X connect 17 0 16 0;
#X connect 18 0 41 0;
#X connect 19 0 15 1;
#X connect 19 0 15 0;
#X connect 20 0 21 0;
#X connect 21 0 23 0;
#X connect 22 0 21 0;
#X connect 23 0 42 0;
#X connect 24 0 20 1;
#X connect 24 0 20 0;
#X connect 25 0 30 1;
#X connect 26 0 31 1;
#X connect 27 0 32 1;
#X connect 28 0 33 1;
#X connect 29 0 34 1;
#X connect 30 0 24 0;
#X connect 31 0 19 0;
#X connect 32 0 14 0;
#X connect 33 0 9 0;
#X connect 34 0 4 0;
#X connect 36 0 37 0;
#X connect 37 0 38 1;
#X connect 37 1 39 1;
#X connect 37 2 40 1;
#X connect 37 3 41 1;
#X connect 37 4 42 1;
#X connect 38 0 48 0;
#X connect 39 0 48 0;
#X connect 40 0 48 0;
#X connect 41 0 48 0;
#X connect 42 0 48 0;
#X connect 43 0 34 0;
#X connect 44 0 33 0;
#X connect 45 0 32 0;
#X connect 46 0 31 0;
#X connect 47 0 30 0;
#X connect 48 0 35 0;
#X restore 234 241 pd detector;
#X obj 170 91 hradio 15 1 0 2 \$0-direction \$0-directioninit +\ - 4 8 0 12 #fcfcfc #000000 #000000 0;
#X obj 20 169 tgl 15 0 \$0-vis \$0-visinit Plot 18 8 0 8 #ffc7c6 #000000 #000000 0 1;
#X obj 145 209 hradio 15 1 0 5 \$0-strmtrg \$0-strmtrginit empty -57 8 0 8 #fcfcfc #000000 #000000 0;
#N canvas 911 124 215 266 presets 0;
#X obj 16 11 loadbang;
#X obj 16 35 f \$0;
#X obj 52 35 bng 19 250 50 0 empty empty empty 0 -10 0 12 #fcfcfc #000000 #000000;
#X msg 16 59 \; \$1-directioninit 0 \; \$1-visinit 1 \; \$1-tglinit 0 \; \$1-strmtrginit 3 \; \$1-mbinit 8 \; \$1-Dinit 2 \; \$1-s1tglinit 1 \; \$1-s2tglinit 1 \; \$1-s3tglinit 1 \; \$1-s4tglinit 1 \; \$1-s5tglinit 1 \; \$1-apowinit 1;
#X connect 0 0 1 0;
#X connect 1 0 3 0;
#X connect 2 0 1 0;
#X restore 258 58 pd presets;
#X obj 10 241 catch~ \$0-sum 2;
#X text 406 139 <- click to open papers;
#N canvas 266 304 380 227 papers 0;
#X obj 11 13 inlet;
#X obj 11 195 pdcontrol;
#X msg 43 62 browse https://www.semanticscholar.org/paper/Scheduling-and-composing-with-Risset-eternal-Stowell/df6a5bf9566d609b120fe06cd7c2541f6aea453c, f 44;
#X obj 11 37 t b b;
#X msg 11 129 browse https://www.tandfonline.com/doi/abs/10.1080/17459737.2021.2001699, f 22;
#X connect 0 0 3 0;
#X connect 2 0 1 0;
#X connect 3 0 4 0;
#X connect 3 1 2 0;
#X connect 4 0 1 0;
#X restore 382 162 pd papers;
#X text 512 190 PD-risset, f 24;
#X text 512 207 Martin Heinze \, 2024-2026;
#X text 379 9 jaycee is a modular implementation of Risset eternal accelerando rhythms for audio samples described by Dan Stowell in his 2011 paper "SCHEDULING AND COMPOSING WITH RISSET ETERNAL ACCELERANDO RHYTHMS" - with updates suggested in Daniele Ghisi's "BARBERPOLE TEMPO ILLUSIONS" (2023), f 43;
#X obj 20 209 tgl 15 0 \$0-s1tgl \$0-s1tglinit empty 0 -10 0 12 #fcfcfc #000000 #000000 0 1;
#X obj 35 209 tgl 15 0 \$0-s2tgl \$0-s2tglinit empty 0 -10 0 12 #fcfcfc #000000 #000000 0 1;
#X obj 50 209 tgl 15 0 \$0-s3tgl \$0-s3tglinit empty 0 -10 0 12 #fcfcfc #000000 #000000 0 1;
#X obj 65 209 tgl 15 0 \$0-s4tgl \$0-s4tglinit empty 0 -10 0 12 #fcfcfc #000000 #000000 0 1;
#X obj 80 209 tgl 15 0 \$0-s5tgl \$0-s5tglinit Streams 19 8 0 8 #fcfcfc #000000 #000000 0 1;
#X obj 124 91 hsl 39 15 1 3 0 0 \$0-apow \$0-apowinit Weight 4 8 0 8 #fcfcfc #000000 #bbbbbb 0 1;
#N canvas 691 336 508 287 router 0;
#X obj 12 12 inlet;
#X obj 237 59 s \$0-strmtrginit;
#X obj 14 130 unpack f f f f f;
#X obj 14 154 s \$0-s1tglinit;
#X obj 14 177 s \$0-s2tglinit;
#X obj 14 200 s \$0-s3tglinit, f 15;
#X obj 14 223 s \$0-s4tglinit;
#X obj 14 246 s \$0-s5tglinit;
#X obj 237 82 s \$0-mbinit;
#X obj 237 105 s \$0-Dinit;
#X obj 12 59 s \$0-tglinit;
#X obj 13 82 s \$0-directioninit;
#X obj 13 105 s \$0-visinit;
#X obj 12 36 route float direction plot streams streamtrigger metabar D b weight, f 68;
#X obj 237 154 s \$0-apowinit;
#X obj 237 130 s \$0-binit;
#X connect 0 0 13 0;
#X connect 2 0 3 0;
#X connect 2 1 4 0;
#X connect 2 2 5 0;
#X connect 2 3 6 0;
#X connect 2 4 7 0;
#X connect 13 0 10 0;
#X connect 13 1 11 0;
#X connect 13 2 12 0;
#X connect 13 3 2 0;
#X connect 13 4 1 0;
#X connect 13 5 8 0;
#X connect 13 6 9 0;
#X connect 13 7 15 0;
#X connect 13 8 14 0;
#X restore 258 34 pd router;
#X obj 258 10 inlet controls;
#X text 287 263 <- Bang on stream restarts. Select via stream trg.;
#N canvas 445 331 608 153 patchbay 0;
#X obj 13 13 r~ \$0-s1, f 11;
#X obj 103 13 r~ \$0-s2, f 11;
#X obj 193 13 r~ \$0-s3, f 11;
#X obj 283 13 r~ \$0-s4, f 11;
#X obj 374 13 r~ \$0-s5, f 11;
#X obj 477 32 throw~ \$0-sum 2;
#X obj 13 37 snake~ out, f 11;
#X obj 103 37 snake~ out, f 11;
#X obj 193 37 snake~ out, f 11;
#X obj 283 37 snake~ out, f 11;
#X obj 374 37 snake~ out, f 11;
#X obj 13 99 snake~ 5, f 52;
#X obj 13 61 expr~ ($v1+$v2)/2, f 11;
#X obj 103 61 expr~ ($v1+$v2)/2, f 11;
#X obj 193 61 expr~ ($v1+$v2)/2, f 11;
#X obj 283 61 expr~ ($v1+$v2)/2, f 11;
#X obj 374 61 expr~ ($v1+$v2)/2, f 11;
#X text 132 123 <- 5x mono out;
#X obj 13 123 s~ \$0-sum_mc5 5;
#X connect 0 0 5 0;
#X connect 0 0 6 0;
#X connect 1 0 5 0;
#X connect 1 0 7 0;
#X connect 2 0 5 0;
#X connect 2 0 8 0;
#X connect 3 0 5 0;
#X connect 3 0 9 0;
#X connect 4 0 5 0;
#X connect 4 0 10 0;
#X connect 6 0 12 0;
#X connect 6 1 12 1;
#X connect 7 0 13 0;
#X connect 7 1 13 1;
#X connect 8 0 14 0;
#X connect 8 1 14 1;
#X connect 9 0 15 0;
#X connect 9 1 15 1;
#X connect 10 0 16 0;
#X connect 10 1 16 1;
#X connect 11 0 18 0;
#X connect 12 0 11 0;
#X connect 13 0 11 1;
#X connect 14 0 11 2;
#X connect 15 0 11 3;
#X connect 16 0 11 4;
#X restore 258 82 pd patchbay;
#X obj 129 264 outlet~;
#X obj 129 241 r~ \$0-sum_mc5;
#X connect 3 0 20 0;
#X connect 5 0 4 0;
#X connect 9 0 2 0;
#X connect 10 0 4 0;
#X connect 13 0 11 0;
#X connect 18 0 6 0;
#X connect 31 0 30 0;
#X connect 35 0 34 0;
#X coords 0 -1 1 1 220 145 2 10 85;
