#N canvas 92 215 935 373 12;
#X obj 136 83 jaycee;
#X obj 136 20 loadbang;
#X msg 136 44 symbol ./assets/MystiqueBreak.wav;
#X obj 349 248 bng 19 250 50 0 empty empty empty 0 -10 0 12 #fcfcfc #000000 #000000;
#N canvas 150 184 505 306 out 0;
#X obj 21 21 inlet~;
#X obj 369 65 vsl 15 65 0 1 0 0 \$0-mainvol \$0-mainvolinit VOL 0 -8 0 10 #fcfcfc #000000 #000000 0 1;
#X obj 174 21 loadbang;
#X obj 339 63 tgl 15 0 \$0-dac \$0-dacinit DAC 0 -6 0 10 #00ff04 #000000 #000000 0 1;
#X obj 395 51 vu 15 80 \$0-vul empty -1 -8 0 10 #404040 #000000 0 0;
#X obj 418 51 vu 15 80 \$0-vur empty -1 -8 0 8 #404040 #000000 1 0;
#X obj 174 45 f \$0;
#X obj 39 44 r \$0-mainvol;
#X obj 21 90 *~;
#X obj 21 210 s~ \$0-al;
#X obj 102 210 s~ \$0-ar;
#X obj 39 67 lop~ 1;
#X obj 21 112 clip~ -1 1;
#X obj 21 134 snake~ out, f 12;
#N canvas 1227 540 162 110 vum 0;
#X obj 8 31 env~;
#X obj 82 31 env~;
#X obj 8 55 - 100;
#X obj 82 55 - 100;
#X obj 82 8 r~ \$0-ar;
#X obj 8 8 r~ \$0-al;
#X obj 8 79 s \$0-vul;
#X obj 82 79 s \$0-vur;
#X connect 0 0 2 0;
#X connect 1 0 3 0;
#X connect 2 0 6 0;
#X connect 3 0 7 0;
#X connect 4 0 1 0;
#X connect 5 0 0 0;
#X restore 174 126 pd vum;
#X obj 21 263 dac~, f 12;
#X obj 21 239 r~ \$0-al;
#X obj 102 239 r~ \$0-ar;
#X obj 21 158 hip~ 20;
#X obj 102 158 hip~ 20;
#X obj 21 182 lop~ 20000;
#X obj 102 182 lop~ 20000;
#X obj 230 126 r \$0-dac;
#X msg 230 150 \; pd dsp \$1;
#X msg 174 69 \; \$1-dacinit 0 \; \$1-mainvolinit 0.9;
#X connect 0 0 8 0;
#X connect 2 0 6 0;
#X connect 6 0 24 0;
#X connect 7 0 11 0;
#X connect 8 0 12 0;
#X connect 11 0 8 1;
#X connect 12 0 13 0;
#X connect 13 0 18 0;
#X connect 13 1 19 0;
#X connect 16 0 15 0;
#X connect 17 0 15 1;
#X connect 18 0 20 0;
#X connect 19 0 21 0;
#X connect 20 0 9 0;
#X connect 21 0 10 0;
#X connect 22 0 23 0;
#X coords 0 -1 1 1 135 100 2 330 40;
#X restore 136 248 pd out;
#X text 372 248 <- Indicates selected stream reset;
#X obj 586 130 bng 19 250 50 0 empty empty empty 0 -10 0 12 #9f9f9f #000000 #000000;
#X text 610 129 <- click to open papers;
#N canvas 266 304 380 227 papers 0;
#X obj 11 13 inlet;
#X obj 11 195 pdcontrol;
#X msg 43 62 browse https://www.semanticscholar.org/paper/Scheduling-and-composing-with-Risset-eternal-Stowell/df6a5bf9566d609b120fe06cd7c2541f6aea453c, f 44;
#X obj 11 37 t b b;
#X msg 11 129 browse https://www.tandfonline.com/doi/abs/10.1080/17459737.2021.2001699, f 22;
#X connect 0 0 3 0;
#X connect 2 0 1 0;
#X connect 3 0 4 0;
#X connect 3 1 2 0;
#X connect 4 0 1 0;
#X restore 586 152 pd papers;
#X text 744 180 PD-risset, f 24;
#X text 744 197 Martin Heinze \, 2024-2026;
#X text 583 19 PD-risset is an Pure Data implementation of Risset eternal accelerando rhythms for audio samples described by Dan Stowell in his 2011 paper "SCHEDULING AND COMPOSING WITH RISSET ETERNAL ACCELERANDO RHYTHMS" - with updates suggested in Daniele Ghisi's "BARBERPOLE TEMPO ILLUSIONS" (2023), f 47;
#X text 11 269 (1) Toggle DAC ->;
#X text 360 87 <- (2) Toggle play back;
#X connect 0 0 4 0;
#X connect 0 1 3 0;
#X connect 1 0 2 0;
#X connect 2 0 0 0;
#X connect 6 0 8 0;
