#N canvas 428 175 516 346 12;
#X obj 20 124 bng 15 250 50 0 \$0-loadfile \$0-loadfiledummy empty 17 7 0 10 #00ff04 #000000 #000000;
#N canvas 830 139 450 278 (subpatch) 0;
#X array \$0-rs_array 129069 float 2;
#X coords 0 1 129069 -1 200 80 2 0 0;
#X restore 20 40 graph;
#X symbolatom 38 124 30 0 0 0 - \$0-filename \$0-filenamedummy 10;
#N canvas 688 330 321 394 sampleloader 0;
#X obj 18 39 openpanel;
#X obj 18 314 soundfiler, f 14;
#X obj 113 336 unpack f;
#X obj 18 68 pack s f, f 11;
#X obj 18 359 s \$0-slength;
#X obj 134 14 loadbang;
#X obj 92 39 f \$0;
#X obj 33 93 unpack s;
#X obj 113 359 s \$0-srate;
#X obj 65 162 list length;
#X floatatom 65 186 5 0 0 0 - - - 0;
#X obj 33 139 t l l;
#X obj 33 116 file split;
#X obj 33 233 list split;
#X obj 65 209 - 1;
#X obj 66 257 s \$0-filename;
#X obj 18 14 r \$0-loadfile;
#X msg 18 289 read -resize \$1 \$2-rs_array;
#X msg 134 39 symbol MystiqueBreak.wav;
#X connect 0 0 3 0;
#X connect 1 0 4 0;
#X connect 1 1 2 0;
#X connect 2 0 8 0;
#X connect 3 0 17 0;
#X connect 3 0 7 0;
#X connect 5 0 6 0;
#X connect 5 0 18 0;
#X connect 6 0 3 1;
#X connect 7 0 12 0;
#X connect 9 0 10 0;
#X connect 10 0 14 0;
#X connect 11 0 13 0;
#X connect 11 1 9 0;
#X connect 12 0 11 0;
#X connect 13 1 15 0;
#X connect 14 0 13 1;
#X connect 16 0 0 0;
#X connect 17 0 1 0;
#X connect 18 0 3 0;
#X restore 111 17 pd sampleloader;
#N canvas 17 197 1404 514 sampleplayer 0;
#X obj 29 53 r \$0-slength;
#X obj 22 123 *;
#X floatatom 22 21 3 0 8 0 - \$0-mbardurfac - 12;
#X obj 22 172 s \$0-tmeta;
#X obj 29 100 t b f;
#X floatatom 29 77 10 0 0 0 - - - 0;
#X floatatom 22 147 11 0 0 0 - - - 0;
#X text 51 20 Metabar duration factor;
#X floatatom 305 147 5 0 0 0 - \$0-binit - 0;
#X obj 305 172 s \$0-b;
#X obj 22 430 env~;
#X obj 22 453 dbtorms;
#X obj 103 359 r \$0-slength;
#X obj 78 381 *~, f 4;
#X obj 78 430 *~;
#X obj 78 453 throw~ \$0-rs_bus;
#X obj 200 304 env~;
#X obj 200 325 dbtorms;
#X floatatom 200 346 5 0 0 0 - - - 0;
#X obj 200 369 vsl 19 85 0 1 0 0 empty empty empty 0 -9 0 12 #fcfcfc #000000 #000000 0 1;
#X text 345 146 b (bandwidth in octaves);
#X obj 1290 303 env~;
#X obj 1290 324 dbtorms;
#X obj 1293 345 hsl 85 19 0 1 0 0 empty empty te/τ 22 10 0 12 #fcfcfc #000000 #000000 0 1;
#X obj 1290 281 r~ \$0-tet;
#X obj 1293 369 hsl 85 19 0 1 0 0 empty \$0-tlT0 Stream\ 0 12 10 0 12 #fcfcfc #000000 #000000 0 1;
#X obj 1293 393 hsl 85 19 0 1 0 0 empty \$0-tlT1 Stream\ 1 12 10 0 12 #fcfcfc #000000 #000000 0 1;
#X obj 1293 417 hsl 85 19 0 1 0 0 empty \$0-tlT2 Stream\ 2 12 10 0 12 #fcfcfc #000000 #000000 0 1;
#X obj 1293 441 hsl 85 19 0 1 0 0 empty \$0-tlT3 Stream\ 3 12 10 0 12 #fcfcfc #000000 #000000 0 1;
#X obj 1293 465 hsl 85 19 0 1 0 0 empty \$0-tlT4 Stream\ 4 12 10 0 12 #fcfcfc #000000 #000000 0 1;
#X obj 22 477 s \$0-tlT0;
#X obj 272 477 s \$0-tlT1;
#X obj 522 477 s \$0-tlT2;
#X obj 772 477 s \$0-tlT3;
#X obj 1022 477 s \$0-tlT4;
#X obj 1168 78 r \$0-slength;
#X obj 1150 100 *~;
#X obj 1150 148 *~ 1;
#X obj 1175 9 r \$0-rc;
#X obj 1150 56 phasor~, f 10;
#X obj 1150 33 *, f 4;
#X obj 1150 9 tgl 19 0 empty \$0-playsample empty 0 -10 0 12 #fcfcfc #000000 #000000 0 1;
#X obj 1185 33 sel 1;
#X obj 1150 172 throw~ \$0-rs_bus;
#X obj 700 56 r \$0-tmeta;
#X obj 795 56 r \$0-srate;
#X floatatom 700 103 9 0 0 0 - - - 0;
#X obj 700 80 expr 1/$f1*$f2;
#X obj 675 150 phasor~;
#X text 735 149 te/τ;
#X obj 675 127 *, f 4;
#X obj 596 78 tgl 49 0 empty \$0-playrisset empty 0 -10 0 12 #404040 #ffffff #000000 0 1;
#X obj 710 127 sel 1, f 6;
#X obj 675 172 s~ \$0-tet;
#X obj 22 285 snake~ out, f 11;
#X obj 22 355 phasor~, f 9;
#X obj 596 172 s \$0-phres;
#X obj 22 239 r~ \$0-tet;
#X obj 22 332 *~;
#X obj 40 309 r \$0-phres;
#X obj 50 333 sel 1;
#X obj 272 430 env~;
#X obj 272 453 dbtorms;
#X obj 353 359 r \$0-slength;
#X obj 328 381 *~, f 4;
#X obj 328 430 *~;
#X obj 328 453 throw~ \$0-rs_bus;
#X obj 448 304 env~;
#X obj 448 325 dbtorms;
#X floatatom 448 346 5 0 0 0 - - - 0;
#X obj 448 369 vsl 19 85 0 1 0 0 empty empty empty 0 -9 0 12 #fcfcfc #000000 #000000 0 1;
#X obj 272 285 snake~ out, f 11;
#X obj 272 355 phasor~, f 9;
#X obj 272 239 r~ \$0-tet;
#X obj 272 332 *~;
#X obj 290 309 r \$0-phres;
#X obj 300 333 sel 1;
#X obj 522 430 env~;
#X obj 522 453 dbtorms;
#X obj 603 359 r \$0-slength;
#X obj 578 381 *~, f 4;
#X obj 578 430 *~;
#X obj 578 453 throw~ \$0-rs_bus;
#X obj 698 304 env~;
#X obj 698 325 dbtorms;
#X floatatom 698 346 5 0 0 0 - - - 0;
#X obj 698 369 vsl 19 85 0 1 0 0 empty empty empty 0 -9 0 12 #fcfcfc #000000 #000000 0 1;
#X obj 522 285 snake~ out, f 11;
#X obj 522 355 phasor~, f 9;
#X obj 522 239 r~ \$0-tet;
#X obj 522 332 *~;
#X obj 540 309 r \$0-phres;
#X obj 550 333 sel 1;
#X obj 772 430 env~;
#X obj 772 453 dbtorms;
#X obj 853 359 r \$0-slength;
#X obj 828 381 *~, f 4;
#X obj 828 430 *~;
#X obj 828 453 throw~ \$0-rs_bus;
#X obj 948 304 env~;
#X obj 948 325 dbtorms;
#X floatatom 948 346 5 0 0 0 - - - 0;
#X obj 948 369 vsl 19 85 0 1 0 0 empty empty empty 0 -9 0 12 #fcfcfc #000000 #000000 0 1;
#X obj 772 285 snake~ out, f 11;
#X obj 772 355 phasor~, f 9;
#X obj 772 239 r~ \$0-tet;
#X obj 772 332 *~;
#X obj 790 309 r \$0-phres;
#X obj 800 333 sel 1;
#X obj 1022 430 env~;
#X obj 1022 453 dbtorms;
#X obj 1103 359 r \$0-slength;
#X obj 1078 381 *~, f 4;
#X obj 1078 430 *~;
#X obj 1078 453 throw~ \$0-rs_bus;
#X obj 1198 304 env~;
#X obj 1198 325 dbtorms;
#X floatatom 1198 346 5 0 0 0 - - - 0;
#X obj 1198 369 vsl 19 85 0 1 0 0 empty empty empty 0 -9 0 12 #fcfcfc #000000 #000000 0 1;
#X obj 1022 285 snake~ out, f 11;
#X obj 1022 355 phasor~, f 9;
#X obj 1022 239 r~ \$0-tet;
#X obj 1022 332 *~;
#X obj 1040 309 r \$0-phres;
#X obj 1050 333 sel 1;
#X obj 28 405 tabread4~ \$0-rs_array;
#X obj 278 405 tabread4~ \$0-rs_array;
#X obj 528 405 tabread4~ \$0-rs_array;
#X obj 778 405 tabread4~ \$0-rs_array;
#X obj 1028 405 tabread4~ \$0-rs_array;
#X text 1020 8 Playback sample in original speed, f 17;
#X text 464 77 Playback sample in risset eternal accelerando, f 17;
#X text 110 76 T (duration of original loop in samples), f 23;
#X text 112 146 τ (duration of metabar in samples), f 23;
#N canvas 744 88 591 621 stream_0 0;
#X obj 121 578 outlet~, f 8;
#X obj 12 33 r \$0-slength;
#X obj 12 131 /;
#X obj 22 104 t b f;
#X obj 22 81 r \$0-tmeta;
#X obj 119 196 *~;
#X obj 119 131 expr~ $v1+$v2;
#X obj 119 154 expr~ pow(2 \, $v1);
#X obj 12 57 expr $f1*ln(2);
#X obj 119 271 *~;
#X floatatom 12 154 13 0 0 0 - - - 0;
#X obj 12 177 sig~;
#X text 244 153 2^(te/τ)+v;
#X text 10 10 T*log2/τ;
#X text 16 258 Multiply with center rate, f 13;
#X obj 160 482 cos~;
#X obj 160 505 +~ 1;
#X obj 160 528 *~ 0.5;
#X obj 181 363 loadbang;
#X obj 181 387 expr 4*atan(1);
#X obj 181 411 t f f;
#X obj 181 435 * -1;
#X obj 160 460 clip~, f 8;
#X obj 160 290 expr~ $v1 / $v2;
#X obj 160 314 expr~ log($v1)/log(2);
#X text 160 386 π;
#X text 214 527 p(r) = 1/2 * (cos [π*b/2 * log2(r/rc)]/-π \, π/ + 1);
#X text 152 195 r(v \, te) = T*log2/τ * 2^(te/τ)+v;
#X obj 160 338 expr~ $v1*(4*atan(1)*$v2/2);
#X obj 346 314 sig~;
#X obj 346 290 r \$0-b;
#X obj 262 242 r \$0-rc;
#X obj 262 266 sig~;
#X obj 137 223 r \$0-rc;
#X obj 137 247 sig~;
#X obj 119 85 inlet~ te/τ;
#X obj 121 554 snake~;
#X obj 207 108 sig~ 0;
#X text 257 107 v (Stream level);
#X connect 1 0 8 0;
#X connect 2 0 10 0;
#X connect 3 0 2 0;
#X connect 3 1 2 1;
#X connect 4 0 3 0;
#X connect 5 0 9 0;
#X connect 6 0 7 0;
#X connect 7 0 5 0;
#X connect 8 0 2 0;
#X connect 9 0 23 0;
#X connect 9 0 36 0;
#X connect 10 0 11 0;
#X connect 11 0 5 1;
#X connect 15 0 16 0;
#X connect 16 0 17 0;
#X connect 17 0 36 1;
#X connect 18 0 19 0;
#X connect 19 0 20 0;
#X connect 20 0 21 0;
#X connect 20 1 22 2;
#X connect 21 0 22 1;
#X connect 22 0 15 0;
#X connect 23 0 24 0;
#X connect 24 0 28 0;
#X connect 28 0 22 0;
#X connect 29 0 28 1;
#X connect 30 0 29 0;
#X connect 31 0 32 0;
#X connect 32 0 23 1;
#X connect 33 0 34 0;
#X connect 34 0 9 1;
#X connect 35 0 6 0;
#X connect 36 0 0 0;
#X connect 37 0 6 1;
#X restore 22 262 pd stream_0;
#N canvas 744 88 591 621 stream_1 0;
#X obj 121 578 outlet~, f 8;
#X obj 12 33 r \$0-slength;
#X obj 12 131 /;
#X obj 22 104 t b f;
#X obj 22 81 r \$0-tmeta;
#X obj 119 196 *~;
#X obj 119 131 expr~ $v1+$v2;
#X obj 119 154 expr~ pow(2 \, $v1);
#X obj 12 57 expr $f1*ln(2);
#X obj 119 271 *~;
#X floatatom 12 154 13 0 0 0 - - - 0;
#X obj 12 177 sig~;
#X text 244 153 2^(te/τ)+v;
#X text 10 10 T*log2/τ;
#X text 16 258 Multiply with center rate, f 13;
#X obj 160 482 cos~;
#X obj 160 505 +~ 1;
#X obj 160 528 *~ 0.5;
#X obj 181 363 loadbang;
#X obj 181 387 expr 4*atan(1);
#X obj 181 411 t f f;
#X obj 181 435 * -1;
#X obj 160 460 clip~, f 8;
#X obj 160 290 expr~ $v1 / $v2;
#X obj 160 314 expr~ log($v1)/log(2);
#X text 160 386 π;
#X text 214 527 p(r) = 1/2 * (cos [π*b/2 * log2(r/rc)]/-π \, π/ + 1);
#X text 152 195 r(v \, te) = T*log2/τ * 2^(te/τ)+v;
#X obj 160 338 expr~ $v1*(4*atan(1)*$v2/2);
#X obj 346 314 sig~;
#X obj 346 290 r \$0-b;
#X obj 262 242 r \$0-rc;
#X obj 262 266 sig~;
#X obj 137 223 r \$0-rc;
#X obj 137 247 sig~;
#X obj 119 85 inlet~ te/τ;
#X obj 121 554 snake~;
#X obj 207 108 sig~ 1;
#X text 258 107 v (Stream level);
#X connect 1 0 8 0;
#X connect 2 0 10 0;
#X connect 3 0 2 0;
#X connect 3 1 2 1;
#X connect 4 0 3 0;
#X connect 5 0 9 0;
#X connect 6 0 7 0;
#X connect 7 0 5 0;
#X connect 8 0 2 0;
#X connect 9 0 23 0;
#X connect 9 0 36 0;
#X connect 10 0 11 0;
#X connect 11 0 5 1;
#X connect 15 0 16 0;
#X connect 16 0 17 0;
#X connect 17 0 36 1;
#X connect 18 0 19 0;
#X connect 19 0 20 0;
#X connect 20 0 21 0;
#X connect 20 1 22 2;
#X connect 21 0 22 1;
#X connect 22 0 15 0;
#X connect 23 0 24 0;
#X connect 24 0 28 0;
#X connect 28 0 22 0;
#X connect 29 0 28 1;
#X connect 30 0 29 0;
#X connect 31 0 32 0;
#X connect 32 0 23 1;
#X connect 33 0 34 0;
#X connect 34 0 9 1;
#X connect 35 0 6 0;
#X connect 36 0 0 0;
#X connect 37 0 6 1;
#X restore 272 262 pd stream_1;
#N canvas 744 88 591 621 stream_2 0;
#X obj 121 578 outlet~, f 8;
#X obj 12 33 r \$0-slength;
#X obj 12 131 /;
#X obj 22 104 t b f;
#X obj 22 81 r \$0-tmeta;
#X obj 119 196 *~;
#X obj 119 131 expr~ $v1+$v2;
#X obj 119 154 expr~ pow(2 \, $v1);
#X obj 12 57 expr $f1*ln(2);
#X obj 119 271 *~;
#X floatatom 12 154 13 0 0 0 - - - 0;
#X obj 12 177 sig~;
#X text 244 153 2^(te/τ)+v;
#X text 10 10 T*log2/τ;
#X text 16 258 Multiply with center rate, f 13;
#X obj 160 482 cos~;
#X obj 160 505 +~ 1;
#X obj 160 528 *~ 0.5;
#X obj 181 363 loadbang;
#X obj 181 387 expr 4*atan(1);
#X obj 181 411 t f f;
#X obj 181 435 * -1;
#X obj 160 460 clip~, f 8;
#X obj 160 290 expr~ $v1 / $v2;
#X obj 160 314 expr~ log($v1)/log(2);
#X text 160 386 π;
#X text 214 527 p(r) = 1/2 * (cos [π*b/2 * log2(r/rc)]/-π \, π/ + 1);
#X text 152 195 r(v \, te) = T*log2/τ * 2^(te/τ)+v;
#X obj 160 338 expr~ $v1*(4*atan(1)*$v2/2);
#X obj 346 314 sig~;
#X obj 346 290 r \$0-b;
#X obj 262 242 r \$0-rc;
#X obj 262 266 sig~;
#X obj 137 223 r \$0-rc;
#X obj 137 247 sig~;
#X obj 119 85 inlet~ te/τ;
#X obj 121 554 snake~;
#X obj 207 108 sig~ 2;
#X text 258 107 v (Stream level);
#X connect 1 0 8 0;
#X connect 2 0 10 0;
#X connect 3 0 2 0;
#X connect 3 1 2 1;
#X connect 4 0 3 0;
#X connect 5 0 9 0;
#X connect 6 0 7 0;
#X connect 7 0 5 0;
#X connect 8 0 2 0;
#X connect 9 0 23 0;
#X connect 9 0 36 0;
#X connect 10 0 11 0;
#X connect 11 0 5 1;
#X connect 15 0 16 0;
#X connect 16 0 17 0;
#X connect 17 0 36 1;
#X connect 18 0 19 0;
#X connect 19 0 20 0;
#X connect 20 0 21 0;
#X connect 20 1 22 2;
#X connect 21 0 22 1;
#X connect 22 0 15 0;
#X connect 23 0 24 0;
#X connect 24 0 28 0;
#X connect 28 0 22 0;
#X connect 29 0 28 1;
#X connect 30 0 29 0;
#X connect 31 0 32 0;
#X connect 32 0 23 1;
#X connect 33 0 34 0;
#X connect 34 0 9 1;
#X connect 35 0 6 0;
#X connect 36 0 0 0;
#X connect 37 0 6 1;
#X restore 522 262 pd stream_2;
#N canvas 744 88 591 621 stream_3 0;
#X obj 121 578 outlet~, f 8;
#X obj 12 33 r \$0-slength;
#X obj 12 131 /;
#X obj 22 104 t b f;
#X obj 22 81 r \$0-tmeta;
#X obj 119 196 *~;
#X obj 119 131 expr~ $v1+$v2;
#X obj 119 154 expr~ pow(2 \, $v1);
#X obj 12 57 expr $f1*ln(2);
#X obj 119 271 *~;
#X floatatom 12 154 13 0 0 0 - - - 0;
#X obj 12 177 sig~;
#X text 244 153 2^(te/τ)+v;
#X text 10 10 T*log2/τ;
#X text 16 258 Multiply with center rate, f 13;
#X obj 160 482 cos~;
#X obj 160 505 +~ 1;
#X obj 160 528 *~ 0.5;
#X obj 181 363 loadbang;
#X obj 181 387 expr 4*atan(1);
#X obj 181 411 t f f;
#X obj 181 435 * -1;
#X obj 160 460 clip~, f 8;
#X obj 160 290 expr~ $v1 / $v2;
#X obj 160 314 expr~ log($v1)/log(2);
#X text 160 386 π;
#X text 214 527 p(r) = 1/2 * (cos [π*b/2 * log2(r/rc)]/-π \, π/ + 1);
#X text 152 195 r(v \, te) = T*log2/τ * 2^(te/τ)+v;
#X obj 160 338 expr~ $v1*(4*atan(1)*$v2/2);
#X obj 346 314 sig~;
#X obj 346 290 r \$0-b;
#X obj 262 242 r \$0-rc;
#X obj 262 266 sig~;
#X obj 137 223 r \$0-rc;
#X obj 137 247 sig~;
#X obj 119 85 inlet~ te/τ;
#X obj 121 554 snake~;
#X obj 207 108 sig~ 3;
#X text 258 107 v (Stream level);
#X connect 1 0 8 0;
#X connect 2 0 10 0;
#X connect 3 0 2 0;
#X connect 3 1 2 1;
#X connect 4 0 3 0;
#X connect 5 0 9 0;
#X connect 6 0 7 0;
#X connect 7 0 5 0;
#X connect 8 0 2 0;
#X connect 9 0 23 0;
#X connect 9 0 36 0;
#X connect 10 0 11 0;
#X connect 11 0 5 1;
#X connect 15 0 16 0;
#X connect 16 0 17 0;
#X connect 17 0 36 1;
#X connect 18 0 19 0;
#X connect 19 0 20 0;
#X connect 20 0 21 0;
#X connect 20 1 22 2;
#X connect 21 0 22 1;
#X connect 22 0 15 0;
#X connect 23 0 24 0;
#X connect 24 0 28 0;
#X connect 28 0 22 0;
#X connect 29 0 28 1;
#X connect 30 0 29 0;
#X connect 31 0 32 0;
#X connect 32 0 23 1;
#X connect 33 0 34 0;
#X connect 34 0 9 1;
#X connect 35 0 6 0;
#X connect 36 0 0 0;
#X connect 37 0 6 1;
#X restore 772 262 pd stream_3;
#N canvas 744 88 591 621 stream_4 0;
#X obj 121 578 outlet~, f 8;
#X obj 12 33 r \$0-slength;
#X obj 12 131 /;
#X obj 22 104 t b f;
#X obj 22 81 r \$0-tmeta;
#X obj 119 196 *~;
#X obj 119 131 expr~ $v1+$v2;
#X obj 119 154 expr~ pow(2 \, $v1);
#X obj 12 57 expr $f1*ln(2);
#X obj 119 271 *~;
#X floatatom 12 154 13 0 0 0 - - - 0;
#X obj 12 177 sig~;
#X text 244 153 2^(te/τ)+v;
#X text 10 10 T*log2/τ;
#X text 16 258 Multiply with center rate, f 13;
#X obj 160 482 cos~;
#X obj 160 505 +~ 1;
#X obj 160 528 *~ 0.5;
#X obj 181 363 loadbang;
#X obj 181 387 expr 4*atan(1);
#X obj 181 411 t f f;
#X obj 181 435 * -1;
#X obj 160 460 clip~, f 8;
#X obj 160 290 expr~ $v1 / $v2;
#X obj 160 314 expr~ log($v1)/log(2);
#X text 160 386 π;
#X text 214 527 p(r) = 1/2 * (cos [π*b/2 * log2(r/rc)]/-π \, π/ + 1);
#X text 152 195 r(v \, te) = T*log2/τ * 2^(te/τ)+v;
#X obj 160 338 expr~ $v1*(4*atan(1)*$v2/2);
#X obj 346 314 sig~;
#X obj 346 290 r \$0-b;
#X obj 262 242 r \$0-rc;
#X obj 262 266 sig~;
#X obj 137 223 r \$0-rc;
#X obj 137 247 sig~;
#X obj 119 85 inlet~ te/τ;
#X obj 121 554 snake~;
#X obj 207 108 sig~ 4;
#X text 258 107 v (Stream level);
#X connect 1 0 8 0;
#X connect 2 0 10 0;
#X connect 3 0 2 0;
#X connect 3 1 2 1;
#X connect 4 0 3 0;
#X connect 5 0 9 0;
#X connect 6 0 7 0;
#X connect 7 0 5 0;
#X connect 8 0 2 0;
#X connect 9 0 23 0;
#X connect 9 0 36 0;
#X connect 10 0 11 0;
#X connect 11 0 5 1;
#X connect 15 0 16 0;
#X connect 16 0 17 0;
#X connect 17 0 36 1;
#X connect 18 0 19 0;
#X connect 19 0 20 0;
#X connect 20 0 21 0;
#X connect 20 1 22 2;
#X connect 21 0 22 1;
#X connect 22 0 15 0;
#X connect 23 0 24 0;
#X connect 24 0 28 0;
#X connect 28 0 22 0;
#X connect 29 0 28 1;
#X connect 30 0 29 0;
#X connect 31 0 32 0;
#X connect 32 0 23 1;
#X connect 33 0 34 0;
#X connect 34 0 9 1;
#X connect 35 0 6 0;
#X connect 36 0 0 0;
#X connect 37 0 6 1;
#X restore 1022 262 pd stream_4;
#X obj 1150 124 tabread4~ \$0-rs_array;
#X obj 926 101 r \$0-srate;
#X obj 824 125 expr 1/$f1*$f2, f 15;
#X obj 824 101 r \$0-slength;
#X floatatom 824 149 13 0 0 0 - - - 12;
#X obj 824 172 s \$0-rc;
#X text 927 148 rc (center playback rate);
#X connect 0 0 5 0;
#X connect 1 0 6 0;
#X connect 2 0 1 0;
#X connect 4 0 1 0;
#X connect 4 1 1 1;
#X connect 5 0 4 0;
#X connect 6 0 3 0;
#X connect 8 0 9 0;
#X connect 10 0 11 0;
#X connect 11 0 30 0;
#X connect 12 0 13 1;
#X connect 13 0 125 0;
#X connect 14 0 15 0;
#X connect 16 0 17 0;
#X connect 17 0 18 0;
#X connect 18 0 19 0;
#X connect 21 0 22 0;
#X connect 22 0 23 0;
#X connect 24 0 21 0;
#X connect 35 0 36 1;
#X connect 36 0 139 0;
#X connect 37 0 43 0;
#X connect 38 0 40 1;
#X connect 39 0 36 0;
#X connect 40 0 39 0;
#X connect 41 0 40 0;
#X connect 41 0 42 0;
#X connect 42 1 39 1;
#X connect 44 0 47 0;
#X connect 45 0 47 1;
#X connect 46 0 50 1;
#X connect 47 0 46 0;
#X connect 48 0 53 0;
#X connect 50 0 48 0;
#X connect 51 0 50 0;
#X connect 51 0 52 0;
#X connect 51 0 56 0;
#X connect 52 1 48 1;
#X connect 54 0 58 0;
#X connect 54 1 14 1;
#X connect 54 1 16 0;
#X connect 55 0 13 0;
#X connect 55 0 10 0;
#X connect 57 0 134 0;
#X connect 58 0 55 0;
#X connect 59 0 58 1;
#X connect 59 0 60 0;
#X connect 60 1 55 1;
#X connect 61 0 62 0;
#X connect 62 0 31 0;
#X connect 63 0 64 1;
#X connect 64 0 126 0;
#X connect 65 0 66 0;
#X connect 67 0 68 0;
#X connect 68 0 69 0;
#X connect 69 0 70 0;
#X connect 71 0 74 0;
#X connect 71 1 65 1;
#X connect 71 1 67 0;
#X connect 72 0 64 0;
#X connect 72 0 61 0;
#X connect 73 0 135 0;
#X connect 74 0 72 0;
#X connect 75 0 74 1;
#X connect 75 0 76 0;
#X connect 76 1 72 1;
#X connect 77 0 78 0;
#X connect 78 0 32 0;
#X connect 79 0 80 1;
#X connect 80 0 127 0;
#X connect 81 0 82 0;
#X connect 83 0 84 0;
#X connect 84 0 85 0;
#X connect 85 0 86 0;
#X connect 87 0 90 0;
#X connect 87 1 81 1;
#X connect 87 1 83 0;
#X connect 88 0 80 0;
#X connect 88 0 77 0;
#X connect 89 0 136 0;
#X connect 90 0 88 0;
#X connect 91 0 90 1;
#X connect 91 0 92 0;
#X connect 92 1 88 1;
#X connect 93 0 94 0;
#X connect 94 0 33 0;
#X connect 95 0 96 1;
#X connect 96 0 128 0;
#X connect 97 0 98 0;
#X connect 99 0 100 0;
#X connect 100 0 101 0;
#X connect 101 0 102 0;
#X connect 103 0 106 0;
#X connect 103 1 97 1;
#X connect 103 1 99 0;
#X connect 104 0 96 0;
#X connect 104 0 93 0;
#X connect 105 0 137 0;
#X connect 106 0 104 0;
#X connect 107 0 106 1;
#X connect 107 0 108 0;
#X connect 108 1 104 1;
#X connect 109 0 110 0;
#X connect 110 0 34 0;
#X connect 111 0 112 1;
#X connect 112 0 129 0;
#X connect 113 0 114 0;
#X connect 115 0 116 0;
#X connect 116 0 117 0;
#X connect 117 0 118 0;
#X connect 119 0 122 0;
#X connect 119 1 113 1;
#X connect 119 1 115 0;
#X connect 120 0 112 0;
#X connect 120 0 109 0;
#X connect 121 0 138 0;
#X connect 122 0 120 0;
#X connect 123 0 122 1;
#X connect 123 0 124 0;
#X connect 124 1 120 1;
#X connect 125 0 14 0;
#X connect 126 0 65 0;
#X connect 127 0 81 0;
#X connect 128 0 97 0;
#X connect 129 0 113 0;
#X connect 134 0 54 0;
#X connect 135 0 71 0;
#X connect 136 0 87 0;
#X connect 137 0 103 0;
#X connect 138 0 119 0;
#X connect 139 0 37 0;
#X connect 140 0 141 1;
#X connect 141 0 143 0;
#X connect 142 0 141 0;
#X connect 143 0 144 0;
#X restore 111 149 pd sampleplayer;
#X obj 20 149 tgl 38 0 \$0-playsample \$0-playsampledummy Normal 1 45 0 8 #606060 #ffffff #000000 0 1;
#X obj 62 149 tgl 49 0 \$0-playrisset \$0-playrissetdummy Risset 2 40 0 12 #404040 #ffffff #ffffff 0 1;
#X text 242 196 Author: Martin Heinze, f 34;
#X text 242 216 Last updated: 03.09.2024, f 34;
#X text 242 36 Risset Sampler is an implementation of Risset eternal accelerando rhythm as described by Dan Stowell in his 2011 paper "SCHEDULING AND COMPOSING WITH RISSET ETERNAL ACCELERANDO RHYTHMS" (https://www.semanticscholar.org/paper/Scheduling-and-composing-with-Risset-eternal-Stowell/df6a5bf9566d609b120fe06cd7c2541f6aea453c), f 35;
#N canvas 92 169 454 284 master 0;
#X obj 179 222 dac~, f 5;
#X obj 331 123 vsl 15 65 0 1 0 0 \$0-mainvol \$0-mainvolinit VOL 0 -8 0 8 #fcfcfc #000000 #000000 0 1;
#X obj 13 20 loadbang;
#X obj 308 121 tgl 15 0 \$0-dac \$0-dacinit DAC 0 -6 0 8 #00ff04 #000000 #000000 0 1;
#X msg 13 146 \; pd dsp \$1;
#X obj 356 109 vu 15 80 \$0-vul empty -1 -8 0 10 #404040 #000000 0 0;
#X obj 379 109 vu 15 80 \$0-vur empty -1 -8 0 8 #404040 #000000 1 0;
#X obj 378 43 env~;
#X obj 13 123 r \$0-dac;
#X obj 13 43 f \$0;
#X obj 197 66 r \$0-mainvol;
#X obj 179 138 *~;
#X obj 223 202 s~ \$0-ar;
#X obj 378 20 r~ \$0-ar;
#X obj 179 43 expr~ atan($v1);
#X obj 197 90 sig~;
#X obj 197 114 lop~ 1;
#X obj 308 148 bng 15 250 50 0 \$0-mute \$0-muteinit Mute 0 -6 0 8 #fcfcfc #000000 #000000;
#X obj 13 189 r \$0-mute;
#X obj 13 212 f \$0;
#X msg 13 235 \; \$1-mainvolinit 0;
#X obj 179 160 clip~ -1 1;
#X obj 179 183 hip~ 5;
#X msg 13 66 \; \$1-dacinit 0 \; \$1-mainvolinit 0.7;
#X obj 179 20 catch~ \$0-rs_bus;
#X obj 378 66 - 100;
#X connect 2 0 9 0;
#X connect 7 0 25 0;
#X connect 8 0 4 0;
#X connect 9 0 23 0;
#X connect 10 0 15 0;
#X connect 11 0 21 0;
#X connect 13 0 7 0;
#X connect 14 0 11 0;
#X connect 15 0 16 0;
#X connect 16 0 11 1;
#X connect 18 0 19 0;
#X connect 19 0 20 0;
#X connect 21 0 22 0;
#X connect 22 0 0 1;
#X connect 22 0 12 0;
#X connect 22 0 0 0;
#X connect 24 0 14 0;
#X connect 25 0 6 0;
#X connect 25 0 5 0;
#X coords 0 -1 1 1 125 100 2 300 100;
#X restore 20 232 pd master;
#N canvas 906 472 234 103 preset 0;
#X obj 19 19 loadbang;
#X msg 19 43 0.15;
#X obj 19 67 s \$0-binit;
#X obj 99 67 s \$0-mbardurfac;
#X msg 99 43 4;
#X connect 0 0 1 0;
#X connect 0 0 4 0;
#X connect 1 0 2 0;
#X connect 4 0 3 0;
#X restore 20 210 pd preset;
