#N canvas 411 129 680 502 12;
#X obj 83 154 *~;
#X obj 83 105 expr~ $v1+$v2, f 17;
#X obj 122 365 cos~;
#X obj 122 388 +~ 1;
#X obj 143 246 loadbang;
#X obj 143 270 expr 4*atan(1);
#X obj 143 294 t f f;
#X obj 143 318 * -1;
#X obj 122 343 clip~, f 8;
#X obj 364 197 sig~;
#X obj 83 435 snake~;
#X text 232 56 v (Stream level);
#X text 129 269 π;
#X obj 122 221 expr~ $v1*(4*atan(1)*2/$v2), f 35;
#X obj 199 34 f \$1;
#X obj 199 11 loadbang;
#X floatatom 199 57 4 0 0 0 - - - 0;
#X obj 199 80 sig~;
#X text 274 269 The stream~ abstraction calculates the play back rate and amplitude of a given Risset Rhythm stream., f 34;
#X text 344 325 PD-risset, f 24;
#X obj 364 104 loadbang;
#X floatatom 364 174 4 0 0 0 - - - 0;
#X obj 364 128 inlet Bandwidth;
#X obj 364 152 f \$2;
#X text 402 173 b (Bandwidth);
#X obj 34 57 snake~ out;
#X obj 83 459 outlet~ r(v \, te) \, p(r);
#X obj 122 197 expr~ log($v1)/log($v2);
#X obj 83 128 expr~ pow($v2 \, $v1);
#X text 344 343 Martin Heinze \, 2024-2026;
#X obj 484 11 loadbang;
#X floatatom 484 80 4 0 0 0 - - - 0;
#X obj 484 103 sig~;
#X obj 484 57 f \$3;
#X text 171 411 p(r) = 1/2 * (cos [π*2/b * logD(r/rc)]/-π \, π/ + 1);
#X text 517 79 D (rate inc. factor);
#X text 223 127 D^(te/τ)+v;
#X obj 484 34 inlet D;
#X text 110 153 r(v \, te) = T*logD/τ * D^(te/τ)+v;
#X obj 484 126 s~ \$0-Dl;
#X obj 213 105 r~ \$0-Dl;
#X obj 280 174 r~ \$0-Dl;
#X obj 34 34 inlet~ te/τ \, T*logD/τ;
#X obj 122 412 *~ 0.5;
#X connect 0 0 10 0;
#X connect 0 0 27 0;
#X connect 1 0 28 0;
#X connect 2 0 3 0;
#X connect 3 0 43 0;
#X connect 4 0 5 0;
#X connect 5 0 6 0;
#X connect 6 0 7 0;
#X connect 6 1 8 2;
#X connect 7 0 8 1;
#X connect 8 0 2 0;
#X connect 9 0 13 1;
#X connect 10 0 26 0;
#X connect 13 0 8 0;
#X connect 14 0 16 0;
#X connect 15 0 14 0;
#X connect 16 0 17 0;
#X connect 17 0 1 1;
#X connect 20 0 23 0;
#X connect 21 0 9 0;
#X connect 22 0 23 0;
#X connect 23 0 21 0;
#X connect 25 0 1 0;
#X connect 25 1 0 1;
#X connect 27 0 13 0;
#X connect 28 0 0 0;
#X connect 30 0 33 0;
#X connect 31 0 32 0;
#X connect 32 0 39 0;
#X connect 33 0 31 0;
#X connect 37 0 33 0;
#X connect 40 0 28 1;
#X connect 41 0 27 1;
#X connect 42 0 25 0;
#X connect 43 0 10 1;
