#N canvas 733 -702 538 502 12;
#X obj 63 165 *~;
#X obj 63 105 expr~ $v1+$v2, f 17;
#X obj 63 128 expr~ pow(2 \, $v1);
#X text 194 127 2^(te/τ)+v;
#X obj 102 374 cos~;
#X obj 102 397 +~ 1;
#X obj 102 421 *~ 0.5;
#X obj 123 255 loadbang;
#X obj 123 279 expr 4*atan(1);
#X obj 123 303 t f f;
#X obj 123 327 * -1;
#X obj 102 352 clip~, f 8;
#X obj 102 206 expr~ log($v1)/log(2);
#X text 95 164 r(v \, te) = T*log2/τ * 2^(te/τ)+v;
#X obj 344 206 sig~;
#X obj 63 444 snake~;
#X text 219 56 v (Stream level);
#X text 109 278 π;
#X obj 102 230 expr~ $v1*(4*atan(1)*2/$v2), f 35;
#X text 156 420 p(r) = 1/2 * (cos [π*2/b * log2(r/rc)]/-π \, π/ + 1);
#X obj 179 34 f \$1;
#X obj 179 11 loadbang;
#X floatatom 179 57 4 0 0 0 - - - 0;
#X obj 179 80 sig~;
#X text 274 287 The stream~ abstraction calculates the play back rate and amplitude of a given Risset Rhythm stream., f 34;
#X text 372 336 PD-risset, f 20;
#X text 372 353 Martin Heinze \, 2026, f 20;
#X obj 354 138 loadbang;
#X floatatom 344 183 4 0 0 0 - - - 0;
#X obj 344 115 inlet Bandwidth;
#X obj 344 161 f \$2;
#X text 382 182 b (Bandwidth);
#X obj 14 57 snake~ out;
#X obj 14 34 inlet~ te/τ \, T*log2/τ;
#X obj 63 468 outlet~ r(v \, te) \, p(r);
#X connect 0 0 12 0;
#X connect 0 0 15 0;
#X connect 1 0 2 0;
#X connect 2 0 0 0;
#X connect 4 0 5 0;
#X connect 5 0 6 0;
#X connect 6 0 15 1;
#X connect 7 0 8 0;
#X connect 8 0 9 0;
#X connect 9 0 10 0;
#X connect 9 1 11 2;
#X connect 10 0 11 1;
#X connect 11 0 4 0;
#X connect 12 0 18 0;
#X connect 14 0 18 1;
#X connect 15 0 34 0;
#X connect 18 0 11 0;
#X connect 20 0 22 0;
#X connect 21 0 20 0;
#X connect 22 0 23 0;
#X connect 23 0 1 1;
#X connect 27 0 30 0;
#X connect 28 0 14 0;
#X connect 29 0 30 0;
#X connect 30 0 28 0;
#X connect 32 0 1 0;
#X connect 32 1 0 1;
#X connect 33 0 32 0;
